<svg width="249" height="43" viewBox="0 0 249 43" fill="none" xmlns="http://www.w3.org/2000/svg">
<path d="M6.90039 16H0.318359V15.3066C0.513672 15.2936 0.816406 15.2676 1.22656 15.2285C1.64323 15.1829 1.92969 15.1374 2.08594 15.0918C2.28776 15.0267 2.44076 14.9225 2.54492 14.7793C2.6556 14.6296 2.71094 14.4082 2.71094 14.1152V7.25977H0.279297V6.43945H0.816406C1.51953 6.43945 2.14779 6.30924 2.70117 6.04883C3.26107 5.78841 3.66146 5.50846 3.90234 5.20898H4.71289C4.69336 5.63216 4.67383 6.12695 4.6543 6.69336C4.63477 7.25977 4.625 7.76758 4.625 8.2168V14.0078C4.625 14.2357 4.67383 14.4408 4.77148 14.623C4.87565 14.7988 5.02214 14.929 5.21094 15.0137C5.38021 15.0853 5.6569 15.1504 6.04102 15.209C6.42513 15.2676 6.71159 15.3001 6.90039 15.3066V16ZM21.8785 16.3223C21.0517 16.3223 20.2574 16.1595 19.4957 15.834C18.7405 15.5085 18.0699 15.0397 17.484 14.4277C16.9046 13.8158 16.4423 13.0703 16.0973 12.1914C15.7522 11.306 15.5797 10.3099 15.5797 9.20312C15.5797 8.09635 15.749 7.09375 16.0875 6.19531C16.426 5.29036 16.8948 4.51237 17.4937 3.86133C18.0862 3.2168 18.7861 2.71875 19.5934 2.36719C20.4007 2.01562 21.2633 1.83984 22.1812 1.83984C22.8648 1.83984 23.4833 1.92448 24.0367 2.09375C24.5901 2.26302 25.1174 2.50065 25.6187 2.80664L26.0191 2.14258H26.8004L26.8883 7.08398H26.0875C25.9833 6.60221 25.8271 6.08138 25.6187 5.52148C25.4104 4.95508 25.1663 4.47656 24.8863 4.08594C24.5738 3.64323 24.2027 3.29818 23.773 3.05078C23.3434 2.79688 22.8518 2.66992 22.2984 2.66992C21.6669 2.66992 21.0777 2.8099 20.5309 3.08984C19.9905 3.36979 19.5217 3.7832 19.1246 4.33008C18.747 4.85742 18.4508 5.52799 18.2359 6.3418C18.0211 7.1556 17.9137 8.0638 17.9137 9.06641C17.9137 9.95182 18.0243 10.7656 18.2457 11.5078C18.4736 12.2435 18.7958 12.8913 19.2125 13.4512C19.6292 14.0046 20.1207 14.4375 20.6871 14.75C21.26 15.0625 21.898 15.2188 22.6012 15.2188C23.1285 15.2188 23.6135 15.1374 24.0562 14.9746C24.499 14.8053 24.8831 14.584 25.2086 14.3105C25.5341 14.0241 25.8206 13.6986 26.068 13.334C26.3154 12.9694 26.5172 12.5723 26.6734 12.1426L27.4059 12.4941C26.846 13.8678 26.1038 14.8509 25.1793 15.4434C24.2548 16.0293 23.1546 16.3223 21.8785 16.3223ZM38.1273 13.7344C37.7237 14.5026 37.1833 15.1146 36.5063 15.5703C35.8292 16.026 35.0512 16.2539 34.1723 16.2539C33.3975 16.2539 32.7172 16.1172 32.1313 15.8438C31.5518 15.5703 31.0733 15.1992 30.6957 14.7305C30.3181 14.2617 30.0349 13.7148 29.8461 13.0898C29.6638 12.4648 29.5727 11.804 29.5727 11.1074C29.5727 10.4824 29.6703 9.87044 29.8656 9.27148C30.0674 8.66602 30.3604 8.1224 30.7445 7.64062C31.1156 7.17839 31.5746 6.80729 32.1215 6.52734C32.6749 6.24089 33.2934 6.09766 33.977 6.09766C34.6801 6.09766 35.2823 6.20833 35.7836 6.42969C36.2849 6.65104 36.6918 6.95378 37.0043 7.33789C37.3038 7.70247 37.5251 8.13216 37.6684 8.62695C37.8181 9.12174 37.893 9.65885 37.893 10.2383V10.8828H31.516C31.516 11.5143 31.5746 12.0872 31.6918 12.6016C31.8155 13.1159 32.0076 13.5684 32.268 13.959C32.5219 14.3366 32.8539 14.6361 33.2641 14.8574C33.6742 15.0723 34.1625 15.1797 34.7289 15.1797C35.3083 15.1797 35.8064 15.0462 36.223 14.7793C36.6462 14.5059 37.0531 14.0176 37.4438 13.3145L38.1273 13.7344ZM35.9691 10.0625C35.9691 9.69792 35.9366 9.30729 35.8715 8.89062C35.8129 8.47396 35.7152 8.12565 35.5785 7.8457C35.4288 7.54622 35.2237 7.30208 34.9633 7.11328C34.7029 6.92448 34.3676 6.83008 33.9574 6.83008C33.2738 6.83008 32.7042 7.11654 32.2484 7.68945C31.7992 8.25586 31.5551 9.04688 31.516 10.0625H35.9691ZM51.0754 16H46.3586V15.3555C46.5083 15.3424 46.6711 15.3294 46.8469 15.3164C47.0292 15.3034 47.1789 15.2773 47.2961 15.2383C47.4784 15.1797 47.6118 15.0788 47.6965 14.9355C47.7876 14.7858 47.8332 14.5938 47.8332 14.3594V9.4082C47.8332 8.72461 47.6704 8.19727 47.3449 7.82617C47.0259 7.45508 46.6353 7.26953 46.173 7.26953C45.828 7.26953 45.5122 7.32487 45.2258 7.43555C44.9393 7.53971 44.6854 7.66992 44.4641 7.82617C44.2492 7.97591 44.0767 8.13867 43.9465 8.31445C43.8228 8.48372 43.7316 8.62044 43.673 8.72461V14.2617C43.673 14.4831 43.7186 14.6654 43.8098 14.8086C43.9009 14.9518 44.0376 15.0625 44.2199 15.1406C44.3566 15.2057 44.5031 15.2546 44.6594 15.2871C44.8221 15.3197 44.9882 15.3424 45.1574 15.3555V16H40.4406V15.3555C40.5904 15.3424 40.7434 15.3294 40.8996 15.3164C41.0624 15.3034 41.2023 15.2773 41.3195 15.2383C41.5018 15.1797 41.6353 15.0788 41.7199 14.9355C41.8111 14.7858 41.8566 14.5938 41.8566 14.3594V8.41211C41.8566 8.19076 41.8078 7.98893 41.7102 7.80664C41.619 7.61784 41.4888 7.46484 41.3195 7.34766C41.1958 7.26953 41.0493 7.21419 40.8801 7.18164C40.7108 7.14258 40.5285 7.11654 40.3332 7.10352V6.46875L43.5363 6.25391L43.673 6.39062V7.74805H43.7219C43.8781 7.5918 44.0734 7.40625 44.3078 7.19141C44.5422 6.97005 44.7635 6.79102 44.9719 6.6543C45.2128 6.49805 45.4992 6.36784 45.8312 6.26367C46.1633 6.15951 46.5376 6.10742 46.9543 6.10742C47.8788 6.10742 48.5624 6.39714 49.0051 6.97656C49.4543 7.54948 49.6789 8.31445 49.6789 9.27148V14.2812C49.6789 14.5091 49.718 14.6947 49.7961 14.8379C49.8742 14.9746 50.0077 15.082 50.1965 15.1602C50.3527 15.2253 50.4862 15.2708 50.5969 15.2969C50.7141 15.3229 50.8736 15.3424 51.0754 15.3555V16ZM59.4043 15.5801C58.9811 15.7559 58.5807 15.9023 58.2031 16.0195C57.8255 16.1432 57.3633 16.2051 56.8164 16.2051C56.0091 16.2051 55.4395 16.0033 55.1074 15.5996C54.7819 15.1895 54.6191 14.6133 54.6191 13.8711V7.34766H52.8809V6.41016H54.6582V3.41211H56.4355V6.41016H59.1992V7.34766H56.4551V12.7285C56.4551 13.1322 56.4681 13.4707 56.4941 13.7441C56.5267 14.0111 56.5983 14.2454 56.709 14.4473C56.8132 14.6361 56.9694 14.7793 57.1777 14.877C57.3861 14.9746 57.666 15.0234 58.0176 15.0234C58.1803 15.0234 58.418 15.0104 58.7305 14.9844C59.0495 14.9518 59.2741 14.9128 59.4043 14.8672V15.5801ZM68.9441 7.61133C68.9441 7.94336 68.8628 8.23958 68.7 8.5C68.5372 8.75391 68.2866 8.88086 67.948 8.88086C67.5835 8.88086 67.3035 8.78646 67.1082 8.59766C66.9194 8.40885 66.825 8.20052 66.825 7.97266C66.825 7.82943 66.8348 7.69922 66.8543 7.58203C66.8803 7.46484 66.9031 7.34766 66.9227 7.23047C66.6167 7.23047 66.2586 7.35417 65.8484 7.60156C65.4383 7.84896 65.09 8.20052 64.8035 8.65625V14.2617C64.8035 14.4896 64.8458 14.6751 64.9305 14.8184C65.0216 14.9616 65.1616 15.069 65.3504 15.1406C65.5132 15.2057 65.7215 15.2546 65.9754 15.2871C66.2358 15.3197 66.4604 15.3424 66.6492 15.3555V16H61.5711V15.3555C61.7208 15.3424 61.8738 15.3294 62.0301 15.3164C62.1928 15.3034 62.3328 15.2773 62.45 15.2383C62.6323 15.1797 62.7658 15.0788 62.8504 14.9355C62.9415 14.7858 62.9871 14.5938 62.9871 14.3594V8.41211C62.9871 8.21029 62.9383 8.01172 62.8406 7.81641C62.7495 7.62109 62.6193 7.46484 62.45 7.34766C62.3263 7.26953 62.1798 7.21419 62.0105 7.18164C61.8413 7.14258 61.659 7.11654 61.4637 7.10352V6.46875L64.6668 6.25391L64.8035 6.39062V7.74805H64.8523C65.256 7.2207 65.7052 6.82031 66.2 6.54688C66.6948 6.27344 67.1473 6.13672 67.5574 6.13672C67.9676 6.13672 68.2996 6.27018 68.5535 6.53711C68.8139 6.80404 68.9441 7.16211 68.9441 7.61133ZM80.0953 15.8242C79.7893 15.9349 79.5191 16.0228 79.2848 16.0879C79.0569 16.1595 78.7965 16.1953 78.5035 16.1953C77.9957 16.1953 77.5888 16.0781 77.2828 15.8438C76.9833 15.6029 76.7913 15.2546 76.7066 14.7988H76.648C76.2249 15.2676 75.7691 15.6257 75.2809 15.873C74.7991 16.1204 74.2164 16.2441 73.5328 16.2441C72.8102 16.2441 72.2145 16.0228 71.7457 15.5801C71.2835 15.1374 71.0523 14.5579 71.0523 13.8418C71.0523 13.4707 71.1044 13.1387 71.2086 12.8457C71.3128 12.5527 71.469 12.2891 71.6773 12.0547C71.8401 11.8594 72.0549 11.6868 72.3219 11.5371C72.5888 11.3809 72.8395 11.2572 73.0738 11.166C73.3668 11.0553 73.9592 10.8503 74.8512 10.5508C75.7496 10.2513 76.3551 10.0169 76.6676 9.84766V8.88086C76.6676 8.79622 76.648 8.63346 76.609 8.39258C76.5764 8.15169 76.5016 7.92383 76.3844 7.70898C76.2542 7.4681 76.0686 7.25977 75.8277 7.08398C75.5934 6.90169 75.2581 6.81055 74.8219 6.81055C74.5224 6.81055 74.2424 6.86263 73.982 6.9668C73.7281 7.06445 73.5491 7.16862 73.4449 7.2793C73.4449 7.40951 73.4742 7.60156 73.5328 7.85547C73.5979 8.10938 73.6305 8.34375 73.6305 8.55859C73.6305 8.78646 73.5263 8.99479 73.318 9.18359C73.1161 9.3724 72.8329 9.4668 72.4684 9.4668C72.1428 9.4668 71.902 9.35286 71.7457 9.125C71.596 8.89062 71.5211 8.63021 71.5211 8.34375C71.5211 8.04427 71.6253 7.75781 71.8336 7.48438C72.0484 7.21094 72.3251 6.9668 72.6637 6.75195C72.9566 6.56966 73.3115 6.41667 73.7281 6.29297C74.1448 6.16276 74.5517 6.09766 74.9488 6.09766C75.4957 6.09766 75.971 6.13672 76.3746 6.21484C76.7848 6.28646 77.1559 6.44596 77.4879 6.69336C77.8199 6.93424 78.0706 7.26302 78.2398 7.67969C78.4156 8.08984 78.5035 8.62044 78.5035 9.27148C78.5035 10.2025 78.4938 11.0293 78.4742 11.752C78.4547 12.4681 78.4449 13.2526 78.4449 14.1055C78.4449 14.3594 78.4872 14.5612 78.5719 14.7109C78.663 14.8607 78.7997 14.9876 78.982 15.0918C79.0797 15.1504 79.2327 15.1829 79.441 15.1895C79.6559 15.196 79.874 15.1992 80.0953 15.1992V15.8242ZM76.6871 10.668C76.1337 10.8307 75.6487 10.9902 75.232 11.1465C74.8154 11.3027 74.428 11.498 74.0699 11.7324C73.7444 11.9538 73.4872 12.2174 73.2984 12.5234C73.1096 12.8229 73.0152 13.181 73.0152 13.5977C73.0152 14.138 73.1552 14.5352 73.4352 14.7891C73.7216 15.043 74.0829 15.1699 74.5191 15.1699C74.9814 15.1699 75.3883 15.0592 75.7398 14.8379C76.0914 14.61 76.3876 14.3431 76.6285 14.0371L76.6871 10.668ZM86.7641 16H82.0668V15.3555C82.2165 15.3424 82.376 15.3294 82.5453 15.3164C82.7146 15.2969 82.8546 15.2708 82.9652 15.2383C83.1475 15.1797 83.2842 15.0788 83.3754 14.9355C83.4665 14.7858 83.5121 14.5938 83.5121 14.3594V3.20703C83.5121 2.97266 83.46 2.75456 83.3559 2.55273C83.2582 2.3444 83.128 2.18164 82.9652 2.06445C82.848 1.98633 82.6332 1.91471 82.3207 1.84961C82.0082 1.78451 81.7576 1.74544 81.5687 1.73242V1.10742L85.1918 0.882812L85.3285 1.0293V14.2422C85.3285 14.4701 85.3708 14.6589 85.4555 14.8086C85.5401 14.9518 85.6768 15.0625 85.8656 15.1406C86.0089 15.2057 86.1488 15.2546 86.2855 15.2871C86.4288 15.3197 86.5883 15.3424 86.7641 15.3555V16ZM104.076 9.64258C104.369 9.9681 104.584 10.3262 104.721 10.7168C104.864 11.1009 104.936 11.5501 104.936 12.0645C104.936 13.2884 104.483 14.2975 103.578 15.0918C102.673 15.8861 101.55 16.2832 100.209 16.2832C99.5905 16.2832 98.972 16.1888 98.3535 16C97.735 15.8047 97.2012 15.5703 96.752 15.2969L96.332 16.0098H95.5508L95.4141 11.2637H96.2051C96.3678 11.8496 96.5566 12.3802 96.7715 12.8555C96.9928 13.3242 97.2826 13.7637 97.6406 14.1738C97.9792 14.5579 98.373 14.8639 98.8223 15.0918C99.278 15.3197 99.8053 15.4336 100.404 15.4336C100.854 15.4336 101.244 15.375 101.576 15.2578C101.915 15.1406 102.188 14.9746 102.396 14.7598C102.605 14.5449 102.758 14.2943 102.855 14.0078C102.96 13.7148 103.012 13.3796 103.012 13.002C103.012 12.4486 102.855 11.9342 102.543 11.459C102.23 10.9772 101.765 10.6126 101.146 10.3652C100.723 10.196 100.238 10.0104 99.6914 9.80859C99.1445 9.60026 98.6725 9.40495 98.2754 9.22266C97.4941 8.87109 96.8854 8.41211 96.4492 7.8457C96.0195 7.27279 95.8047 6.52734 95.8047 5.60938C95.8047 5.08203 95.9121 4.59049 96.127 4.13477C96.3418 3.67904 96.6478 3.27214 97.0449 2.91406C97.4225 2.57552 97.8685 2.31185 98.3828 2.12305C98.8971 1.92773 99.4342 1.83008 99.9941 1.83008C100.632 1.83008 101.202 1.92773 101.703 2.12305C102.211 2.31836 102.673 2.54622 103.09 2.80664L103.49 2.14258H104.271L104.35 6.74219H103.559C103.415 6.21484 103.253 5.71029 103.07 5.22852C102.895 4.74674 102.663 4.31055 102.377 3.91992C102.097 3.54232 101.755 3.24284 101.352 3.02148C100.948 2.79362 100.453 2.67969 99.8672 2.67969C99.2487 2.67969 98.7214 2.87826 98.2852 3.27539C97.849 3.67253 97.6309 4.15755 97.6309 4.73047C97.6309 5.32943 97.7708 5.82747 98.0508 6.22461C98.3307 6.61523 98.7376 6.9375 99.2715 7.19141C99.7467 7.41927 100.212 7.61784 100.668 7.78711C101.13 7.94987 101.576 8.12565 102.006 8.31445C102.396 8.48372 102.771 8.67578 103.129 8.89062C103.493 9.10547 103.809 9.35612 104.076 9.64258ZM113.577 15.5801C113.154 15.7559 112.753 15.9023 112.376 16.0195C111.998 16.1432 111.536 16.2051 110.989 16.2051C110.182 16.2051 109.612 16.0033 109.28 15.5996C108.955 15.1895 108.792 14.6133 108.792 13.8711V7.34766H107.054V6.41016H108.831V3.41211H110.608V6.41016H113.372V7.34766H110.628V12.7285C110.628 13.1322 110.641 13.4707 110.667 13.7441C110.699 14.0111 110.771 14.2454 110.882 14.4473C110.986 14.6361 111.142 14.7793 111.35 14.877C111.559 14.9746 111.839 15.0234 112.19 15.0234C112.353 15.0234 112.591 15.0104 112.903 14.9844C113.222 14.9518 113.447 14.9128 113.577 14.8672V15.5801ZM123.117 7.61133C123.117 7.94336 123.035 8.23958 122.873 8.5C122.71 8.75391 122.459 8.88086 122.121 8.88086C121.756 8.88086 121.476 8.78646 121.281 8.59766C121.092 8.40885 120.998 8.20052 120.998 7.97266C120.998 7.82943 121.007 7.69922 121.027 7.58203C121.053 7.46484 121.076 7.34766 121.095 7.23047C120.789 7.23047 120.431 7.35417 120.021 7.60156C119.611 7.84896 119.263 8.20052 118.976 8.65625V14.2617C118.976 14.4896 119.018 14.6751 119.103 14.8184C119.194 14.9616 119.334 15.069 119.523 15.1406C119.686 15.2057 119.894 15.2546 120.148 15.2871C120.408 15.3197 120.633 15.3424 120.822 15.3555V16H115.744V15.3555C115.893 15.3424 116.046 15.3294 116.203 15.3164C116.365 15.3034 116.505 15.2773 116.623 15.2383C116.805 15.1797 116.938 15.0788 117.023 14.9355C117.114 14.7858 117.16 14.5938 117.16 14.3594V8.41211C117.16 8.21029 117.111 8.01172 117.013 7.81641C116.922 7.62109 116.792 7.46484 116.623 7.34766C116.499 7.26953 116.352 7.21419 116.183 7.18164C116.014 7.14258 115.832 7.11654 115.636 7.10352V6.46875L118.839 6.25391L118.976 6.39062V7.74805H119.025C119.429 7.2207 119.878 6.82031 120.373 6.54688C120.867 6.27344 121.32 6.13672 121.73 6.13672C122.14 6.13672 122.472 6.27018 122.726 6.53711C122.987 6.80404 123.117 7.16211 123.117 7.61133ZM133.702 13.7344C133.298 14.5026 132.758 15.1146 132.08 15.5703C131.403 16.026 130.625 16.2539 129.746 16.2539C128.972 16.2539 128.291 16.1172 127.705 15.8438C127.126 15.5703 126.648 15.1992 126.27 14.7305C125.892 14.2617 125.609 13.7148 125.42 13.0898C125.238 12.4648 125.147 11.804 125.147 11.1074C125.147 10.4824 125.245 9.87044 125.44 9.27148C125.642 8.66602 125.935 8.1224 126.319 7.64062C126.69 7.17839 127.149 6.80729 127.696 6.52734C128.249 6.24089 128.868 6.09766 129.551 6.09766C130.254 6.09766 130.857 6.20833 131.358 6.42969C131.859 6.65104 132.266 6.95378 132.579 7.33789C132.878 7.70247 133.099 8.13216 133.243 8.62695C133.392 9.12174 133.467 9.65885 133.467 10.2383V10.8828H127.09C127.09 11.5143 127.149 12.0872 127.266 12.6016C127.39 13.1159 127.582 13.5684 127.842 13.959C128.096 14.3366 128.428 14.6361 128.838 14.8574C129.248 15.0723 129.737 15.1797 130.303 15.1797C130.883 15.1797 131.381 15.0462 131.797 14.7793C132.22 14.5059 132.627 14.0176 133.018 13.3145L133.702 13.7344ZM131.543 10.0625C131.543 9.69792 131.511 9.30729 131.446 8.89062C131.387 8.47396 131.289 8.12565 131.153 7.8457C131.003 7.54622 130.798 7.30208 130.537 7.11328C130.277 6.92448 129.942 6.83008 129.532 6.83008C128.848 6.83008 128.278 7.11654 127.823 7.68945C127.373 8.25586 127.129 9.04688 127.09 10.0625H131.543ZM144.57 13.7344C144.166 14.5026 143.626 15.1146 142.948 15.5703C142.271 16.026 141.493 16.2539 140.614 16.2539C139.84 16.2539 139.159 16.1172 138.573 15.8438C137.994 15.5703 137.515 15.1992 137.138 14.7305C136.76 14.2617 136.477 13.7148 136.288 13.0898C136.106 12.4648 136.015 11.804 136.015 11.1074C136.015 10.4824 136.113 9.87044 136.308 9.27148C136.51 8.66602 136.803 8.1224 137.187 7.64062C137.558 7.17839 138.017 6.80729 138.564 6.52734C139.117 6.24089 139.736 6.09766 140.419 6.09766C141.122 6.09766 141.724 6.20833 142.226 6.42969C142.727 6.65104 143.134 6.95378 143.446 7.33789C143.746 7.70247 143.967 8.13216 144.111 8.62695C144.26 9.12174 144.335 9.65885 144.335 10.2383V10.8828H137.958C137.958 11.5143 138.017 12.0872 138.134 12.6016C138.258 13.1159 138.45 13.5684 138.71 13.959C138.964 14.3366 139.296 14.6361 139.706 14.8574C140.116 15.0723 140.605 15.1797 141.171 15.1797C141.751 15.1797 142.249 15.0462 142.665 14.7793C143.088 14.5059 143.495 14.0176 143.886 13.3145L144.57 13.7344ZM142.411 10.0625C142.411 9.69792 142.379 9.30729 142.314 8.89062C142.255 8.47396 142.157 8.12565 142.021 7.8457C141.871 7.54622 141.666 7.30208 141.405 7.11328C141.145 6.92448 140.81 6.83008 140.4 6.83008C139.716 6.83008 139.146 7.11654 138.691 7.68945C138.241 8.25586 137.997 9.04688 137.958 10.0625H142.411ZM152.83 15.5801C152.407 15.7559 152.007 15.9023 151.629 16.0195C151.251 16.1432 150.789 16.2051 150.242 16.2051C149.435 16.2051 148.865 16.0033 148.533 15.5996C148.208 15.1895 148.045 14.6133 148.045 13.8711V7.34766H146.307V6.41016H148.084V3.41211H149.861V6.41016H152.625V7.34766H149.881V12.7285C149.881 13.1322 149.894 13.4707 149.92 13.7441C149.952 14.0111 150.024 14.2454 150.135 14.4473C150.239 14.6361 150.395 14.7793 150.604 14.877C150.812 14.9746 151.092 15.0234 151.443 15.0234C151.606 15.0234 151.844 15.0104 152.156 14.9844C152.475 14.9518 152.7 14.9128 152.83 14.8672V15.5801ZM158.483 15.6582C158.483 16.127 158.376 16.5697 158.161 16.9863C157.953 17.403 157.712 17.7611 157.438 18.0605C157.158 18.373 156.862 18.6497 156.55 18.8906C156.237 19.1315 155.951 19.3203 155.69 19.457L155.241 18.8027C155.554 18.6074 155.833 18.4121 156.081 18.2168C156.328 18.0215 156.53 17.8262 156.686 17.6309C156.882 17.403 157.048 17.1556 157.184 16.8887C157.321 16.6217 157.409 16.319 157.448 15.9805H156.95C156.514 15.9805 156.172 15.8665 155.925 15.6387C155.684 15.4108 155.563 15.1048 155.563 14.7207C155.563 14.4473 155.674 14.1836 155.895 13.9297C156.117 13.6693 156.419 13.5391 156.804 13.5391C157.363 13.5391 157.783 13.7279 158.063 14.1055C158.343 14.4766 158.483 14.9941 158.483 15.6582ZM177.69 9.54492C178.093 9.81836 178.429 10.1764 178.696 10.6191C178.963 11.0618 179.096 11.599 179.096 12.2305C179.096 12.875 178.956 13.4349 178.676 13.9102C178.396 14.3854 178.032 14.776 177.582 15.082C177.146 15.3815 176.651 15.6094 176.098 15.7656C175.551 15.9219 174.985 16 174.399 16H167.836V15.3066C167.993 15.2936 168.22 15.2676 168.52 15.2285C168.819 15.1829 169.034 15.1309 169.164 15.0723C169.366 14.9811 169.51 14.8607 169.594 14.7109C169.679 14.5547 169.721 14.3561 169.721 14.1152V4.1543C169.721 3.93294 169.682 3.73763 169.604 3.56836C169.532 3.39909 169.386 3.26237 169.164 3.1582C168.969 3.06055 168.751 2.98568 168.51 2.93359C168.269 2.88151 168.067 2.84896 167.905 2.83594V2.14258H174.301C174.796 2.14258 175.268 2.19141 175.717 2.28906C176.173 2.38672 176.606 2.55924 177.016 2.80664C177.4 3.03451 177.716 3.34375 177.963 3.73438C178.211 4.125 178.334 4.60026 178.334 5.16016C178.334 5.64844 178.246 6.08464 178.071 6.46875C177.895 6.84635 177.648 7.17188 177.329 7.44531C177.029 7.70573 176.684 7.92708 176.293 8.10938C175.909 8.28516 175.493 8.42188 175.043 8.51953V8.60742C175.441 8.65299 175.883 8.75391 176.371 8.91016C176.866 9.0599 177.306 9.27148 177.69 9.54492ZM175.336 7.45508C175.577 7.17513 175.743 6.86914 175.834 6.53711C175.932 6.20508 175.981 5.8112 175.981 5.35547C175.981 4.59375 175.773 3.99805 175.356 3.56836C174.939 3.13216 174.282 2.91406 173.383 2.91406C173.175 2.91406 172.911 2.92057 172.592 2.93359C172.28 2.9401 172.016 2.94661 171.801 2.95312V8.27539H173.041C173.575 8.27539 174.031 8.20703 174.409 8.07031C174.793 7.93359 175.102 7.72852 175.336 7.45508ZM176.684 11.8789C176.684 11.0586 176.407 10.3848 175.854 9.85742C175.307 9.33008 174.523 9.06641 173.5 9.06641C173.084 9.06641 172.732 9.07292 172.446 9.08594C172.159 9.09245 171.944 9.09896 171.801 9.10547V13.9883C171.801 14.3984 171.967 14.7077 172.299 14.916C172.631 15.1243 173.093 15.2285 173.686 15.2285C174.656 15.2285 175.398 14.9453 175.913 14.3789C176.427 13.8125 176.684 12.9792 176.684 11.8789ZM191.282 11.0879C191.282 11.765 191.175 12.4323 190.96 13.0898C190.745 13.7409 190.439 14.2943 190.042 14.75C189.593 15.2708 189.072 15.6582 188.48 15.9121C187.887 16.166 187.223 16.293 186.488 16.293C185.876 16.293 185.293 16.179 184.739 15.9512C184.186 15.7168 183.695 15.3783 183.265 14.9355C182.842 14.4993 182.503 13.9688 182.249 13.3438C182.002 12.7122 181.878 12.0059 181.878 11.2246C181.878 9.7207 182.314 8.49023 183.187 7.5332C184.066 6.57617 185.215 6.09766 186.634 6.09766C187.982 6.09766 189.092 6.55339 189.964 7.46484C190.843 8.36979 191.282 9.57747 191.282 11.0879ZM189.261 11.1074C189.261 10.6191 189.212 10.1048 189.114 9.56445C189.017 9.01758 188.87 8.55534 188.675 8.17773C188.467 7.77409 188.193 7.45182 187.855 7.21094C187.516 6.96354 187.103 6.83984 186.614 6.83984C186.113 6.83984 185.683 6.96354 185.325 7.21094C184.974 7.45833 184.687 7.79688 184.466 8.22656C184.258 8.6237 184.111 9.07617 184.027 9.58398C183.942 10.0918 183.9 10.5833 183.9 11.0586C183.9 11.6836 183.948 12.263 184.046 12.7969C184.15 13.3242 184.313 13.7962 184.534 14.2129C184.756 14.6296 185.032 14.9583 185.364 15.1992C185.703 15.4336 186.12 15.5508 186.614 15.5508C187.428 15.5508 188.073 15.1569 188.548 14.3691C189.023 13.5814 189.261 12.4941 189.261 11.1074ZM200.236 11.2832C200.503 11.5176 200.708 11.7878 200.852 12.0938C200.995 12.3997 201.066 12.7741 201.066 13.2168C201.066 14.1087 200.731 14.8379 200.061 15.4043C199.396 15.9707 198.534 16.2539 197.473 16.2539C196.913 16.2539 196.395 16.153 195.92 15.9512C195.451 15.7493 195.116 15.5638 194.914 15.3945L194.719 16.0293H193.986L193.889 12.6797H194.562C194.615 12.9336 194.725 13.2298 194.895 13.5684C195.064 13.9069 195.269 14.2129 195.51 14.4863C195.764 14.7728 196.066 15.0137 196.418 15.209C196.776 15.4043 197.176 15.502 197.619 15.502C198.244 15.502 198.726 15.362 199.064 15.082C199.403 14.7956 199.572 14.3887 199.572 13.8613C199.572 13.5879 199.517 13.3535 199.406 13.1582C199.302 12.9564 199.146 12.7806 198.938 12.6309C198.723 12.4811 198.459 12.3477 198.146 12.2305C197.834 12.1068 197.486 11.9863 197.102 11.8691C196.796 11.778 196.454 11.6543 196.076 11.498C195.705 11.3353 195.386 11.1465 195.119 10.9316C194.833 10.7038 194.598 10.4238 194.416 10.0918C194.234 9.75977 194.143 9.36914 194.143 8.91992C194.143 8.13216 194.436 7.46484 195.021 6.91797C195.607 6.37109 196.392 6.09766 197.375 6.09766C197.753 6.09766 198.137 6.14648 198.527 6.24414C198.924 6.3418 199.247 6.45898 199.494 6.5957L199.719 6.08789H200.422L200.568 9.18359H199.895C199.758 8.49349 199.462 7.93359 199.006 7.50391C198.557 7.06771 198.007 6.84961 197.355 6.84961C196.822 6.84961 196.402 6.98307 196.096 7.25C195.79 7.51693 195.637 7.83919 195.637 8.2168C195.637 8.50977 195.686 8.75391 195.783 8.94922C195.887 9.14453 196.04 9.31055 196.242 9.44727C196.438 9.57747 196.682 9.70117 196.975 9.81836C197.274 9.92904 197.642 10.056 198.078 10.1992C198.508 10.3359 198.911 10.4954 199.289 10.6777C199.673 10.86 199.989 11.0618 200.236 11.2832ZM209.679 15.5801C209.255 15.7559 208.855 15.9023 208.477 16.0195C208.1 16.1432 207.637 16.2051 207.091 16.2051C206.283 16.2051 205.714 16.0033 205.382 15.5996C205.056 15.1895 204.893 14.6133 204.893 13.8711V7.34766H203.155V6.41016H204.932V3.41211H206.71V6.41016H209.473V7.34766H206.729V12.7285C206.729 13.1322 206.742 13.4707 206.768 13.7441C206.801 14.0111 206.873 14.2454 206.983 14.4473C207.087 14.6361 207.244 14.7793 207.452 14.877C207.66 14.9746 207.94 15.0234 208.292 15.0234C208.455 15.0234 208.692 15.0104 209.005 14.9844C209.324 14.9518 209.548 14.9128 209.679 14.8672V15.5801ZM221.23 11.0879C221.23 11.765 221.123 12.4323 220.908 13.0898C220.693 13.7409 220.387 14.2943 219.99 14.75C219.541 15.2708 219.02 15.6582 218.427 15.9121C217.835 16.166 217.171 16.293 216.435 16.293C215.823 16.293 215.24 16.179 214.687 15.9512C214.134 15.7168 213.642 15.3783 213.212 14.9355C212.789 14.4993 212.451 13.9688 212.197 13.3438C211.949 12.7122 211.826 12.0059 211.826 11.2246C211.826 9.7207 212.262 8.49023 213.134 7.5332C214.013 6.57617 215.162 6.09766 216.582 6.09766C217.929 6.09766 219.039 6.55339 219.912 7.46484C220.791 8.36979 221.23 9.57747 221.23 11.0879ZM219.209 11.1074C219.209 10.6191 219.16 10.1048 219.062 9.56445C218.964 9.01758 218.818 8.55534 218.623 8.17773C218.414 7.77409 218.141 7.45182 217.802 7.21094C217.464 6.96354 217.05 6.83984 216.562 6.83984C216.061 6.83984 215.631 6.96354 215.273 7.21094C214.921 7.45833 214.635 7.79688 214.414 8.22656C214.205 8.6237 214.059 9.07617 213.974 9.58398C213.89 10.0918 213.847 10.5833 213.847 11.0586C213.847 11.6836 213.896 12.263 213.994 12.7969C214.098 13.3242 214.261 13.7962 214.482 14.2129C214.703 14.6296 214.98 14.9583 215.312 15.1992C215.651 15.4336 216.067 15.5508 216.562 15.5508C217.376 15.5508 218.02 15.1569 218.496 14.3691C218.971 13.5814 219.209 12.4941 219.209 11.1074ZM234.461 16H229.745V15.3555C229.894 15.3424 230.057 15.3294 230.233 15.3164C230.415 15.3034 230.565 15.2773 230.682 15.2383C230.864 15.1797 230.998 15.0788 231.082 14.9355C231.174 14.7858 231.219 14.5938 231.219 14.3594V9.4082C231.219 8.72461 231.056 8.19727 230.731 7.82617C230.412 7.45508 230.021 7.26953 229.559 7.26953C229.214 7.26953 228.898 7.32487 228.612 7.43555C228.325 7.53971 228.071 7.66992 227.85 7.82617C227.635 7.97591 227.463 8.13867 227.332 8.31445C227.209 8.48372 227.118 8.62044 227.059 8.72461V14.2617C227.059 14.4831 227.105 14.6654 227.196 14.8086C227.287 14.9518 227.424 15.0625 227.606 15.1406C227.743 15.2057 227.889 15.2546 228.045 15.2871C228.208 15.3197 228.374 15.3424 228.543 15.3555V16H223.827V15.3555C223.976 15.3424 224.129 15.3294 224.286 15.3164C224.448 15.3034 224.588 15.2773 224.705 15.2383C224.888 15.1797 225.021 15.0788 225.106 14.9355C225.197 14.7858 225.243 14.5938 225.243 14.3594V8.41211C225.243 8.19076 225.194 7.98893 225.096 7.80664C225.005 7.61784 224.875 7.46484 224.705 7.34766C224.582 7.26953 224.435 7.21419 224.266 7.18164C224.097 7.14258 223.914 7.11654 223.719 7.10352V6.46875L226.922 6.25391L227.059 6.39062V7.74805H227.108C227.264 7.5918 227.459 7.40625 227.694 7.19141C227.928 6.97005 228.149 6.79102 228.358 6.6543C228.599 6.49805 228.885 6.36784 229.217 6.26367C229.549 6.15951 229.924 6.10742 230.34 6.10742C231.265 6.10742 231.948 6.39714 232.391 6.97656C232.84 7.54948 233.065 8.31445 233.065 9.27148V14.2812C233.065 14.5091 233.104 14.6947 233.182 14.8379C233.26 14.9746 233.394 15.082 233.582 15.1602C233.739 15.2253 233.872 15.2708 233.983 15.2969C234.1 15.3229 234.26 15.3424 234.461 15.3555V16ZM5.8457 42.2031C4.06836 41.9818 2.67188 41.0866 1.65625 39.5176C0.647135 37.9486 0.142578 35.8359 0.142578 33.1797C0.142578 30.4779 0.647135 28.3392 1.65625 26.7637C2.67188 25.1816 4.06836 24.2734 5.8457 24.0391V24.8496C4.5957 25.0775 3.64518 25.875 2.99414 27.2422C2.3431 28.6094 2.01758 30.5951 2.01758 33.1992C2.01758 35.6797 2.33659 37.61 2.97461 38.9902C3.61263 40.3639 4.56966 41.168 5.8457 41.4023V42.2031ZM16.9578 36.7344C16.5542 37.5026 16.0138 38.1146 15.3367 38.5703C14.6596 39.026 13.8816 39.2539 13.0027 39.2539C12.228 39.2539 11.5477 39.1172 10.9617 38.8438C10.3823 38.5703 9.90378 38.1992 9.52617 37.7305C9.14857 37.2617 8.86536 36.7148 8.67656 36.0898C8.49427 35.4648 8.40312 34.804 8.40312 34.1074C8.40312 33.4824 8.50078 32.8704 8.69609 32.2715C8.89792 31.666 9.19089 31.1224 9.575 30.6406C9.94609 30.1784 10.4051 29.8073 10.952 29.5273C11.5053 29.2409 12.1238 29.0977 12.8074 29.0977C13.5105 29.0977 14.1128 29.2083 14.6141 29.4297C15.1154 29.651 15.5223 29.9538 15.8348 30.3379C16.1342 30.7025 16.3556 31.1322 16.4988 31.627C16.6486 32.1217 16.7234 32.6589 16.7234 33.2383V33.8828H10.3465C10.3465 34.5143 10.4051 35.0872 10.5223 35.6016C10.646 36.1159 10.838 36.5684 11.0984 36.959C11.3523 37.3366 11.6844 37.6361 12.0945 37.8574C12.5047 38.0723 12.993 38.1797 13.5594 38.1797C14.1388 38.1797 14.6368 38.0462 15.0535 37.7793C15.4767 37.5059 15.8836 37.0176 16.2742 36.3145L16.9578 36.7344ZM14.7996 33.0625C14.7996 32.6979 14.7671 32.3073 14.702 31.8906C14.6434 31.474 14.5457 31.1257 14.409 30.8457C14.2592 30.5462 14.0542 30.3021 13.7937 30.1133C13.5333 29.9245 13.198 29.8301 12.7879 29.8301C12.1043 29.8301 11.5346 30.1165 11.0789 30.6895C10.6297 31.2559 10.3855 32.0469 10.3465 33.0625H14.7996ZM29.9059 39H25.1891V38.3555C25.3388 38.3424 25.5016 38.3294 25.6773 38.3164C25.8596 38.3034 26.0094 38.2773 26.1266 38.2383C26.3089 38.1797 26.4423 38.0788 26.527 37.9355C26.6181 37.7858 26.6637 37.5938 26.6637 37.3594V32.4082C26.6637 31.7246 26.5009 31.1973 26.1754 30.8262C25.8564 30.4551 25.4658 30.2695 25.0035 30.2695C24.6585 30.2695 24.3427 30.3249 24.0562 30.4355C23.7698 30.5397 23.5159 30.6699 23.2945 30.8262C23.0797 30.9759 22.9072 31.1387 22.777 31.3145C22.6533 31.4837 22.5621 31.6204 22.5035 31.7246V37.2617C22.5035 37.4831 22.5491 37.6654 22.6402 37.8086C22.7314 37.9518 22.8681 38.0625 23.0504 38.1406C23.1871 38.2057 23.3336 38.2546 23.4898 38.2871C23.6526 38.3197 23.8186 38.3424 23.9879 38.3555V39H19.2711V38.3555C19.4208 38.3424 19.5738 38.3294 19.7301 38.3164C19.8928 38.3034 20.0328 38.2773 20.15 38.2383C20.3323 38.1797 20.4658 38.0788 20.5504 37.9355C20.6415 37.7858 20.6871 37.5938 20.6871 37.3594V31.4121C20.6871 31.1908 20.6383 30.9889 20.5406 30.8066C20.4495 30.6178 20.3193 30.4648 20.15 30.3477C20.0263 30.2695 19.8798 30.2142 19.7105 30.1816C19.5413 30.1426 19.359 30.1165 19.1637 30.1035V29.4688L22.3668 29.2539L22.5035 29.3906V30.748H22.5523C22.7086 30.5918 22.9039 30.4062 23.1383 30.1914C23.3727 29.9701 23.594 29.791 23.8023 29.6543C24.0432 29.498 24.3297 29.3678 24.6617 29.2637C24.9937 29.1595 25.3681 29.1074 25.7848 29.1074C26.7092 29.1074 27.3928 29.3971 27.8355 29.9766C28.2848 30.5495 28.5094 31.3145 28.5094 32.2715V37.2812C28.5094 37.5091 28.5484 37.6947 28.6266 37.8379C28.7047 37.9746 28.8382 38.082 29.027 38.1602C29.1832 38.2253 29.3167 38.2708 29.4273 38.2969C29.5445 38.3229 29.704 38.3424 29.9059 38.3555V39ZM38.2348 38.5801C37.8116 38.7559 37.4112 38.9023 37.0336 39.0195C36.656 39.1432 36.1937 39.2051 35.6469 39.2051C34.8396 39.2051 34.2699 39.0033 33.9379 38.5996C33.6124 38.1895 33.4496 37.6133 33.4496 36.8711V30.3477H31.7113V29.4102H33.4887V26.4121H35.266V29.4102H38.0297V30.3477H35.2855V35.7285C35.2855 36.1322 35.2986 36.4707 35.3246 36.7441C35.3572 37.0111 35.4288 37.2454 35.5395 37.4473C35.6436 37.6361 35.7999 37.7793 36.0082 37.877C36.2165 37.9746 36.4965 38.0234 36.848 38.0234C37.0108 38.0234 37.2484 38.0104 37.5609 37.9844C37.8799 37.9518 38.1046 37.9128 38.2348 37.8672V38.5801ZM47.7746 30.6113C47.7746 30.9434 47.6932 31.2396 47.5305 31.5C47.3677 31.7539 47.1171 31.8809 46.7785 31.8809C46.4139 31.8809 46.134 31.7865 45.9387 31.5977C45.7499 31.4089 45.6555 31.2005 45.6555 30.9727C45.6555 30.8294 45.6652 30.6992 45.6848 30.582C45.7108 30.4648 45.7336 30.3477 45.7531 30.2305C45.4471 30.2305 45.0891 30.3542 44.6789 30.6016C44.2687 30.849 43.9204 31.2005 43.634 31.6562V37.2617C43.634 37.4896 43.6763 37.6751 43.7609 37.8184C43.8521 37.9616 43.9921 38.069 44.1809 38.1406C44.3436 38.2057 44.552 38.2546 44.8059 38.2871C45.0663 38.3197 45.2909 38.3424 45.4797 38.3555V39H40.4016V38.3555C40.5513 38.3424 40.7043 38.3294 40.8605 38.3164C41.0233 38.3034 41.1633 38.2773 41.2805 38.2383C41.4628 38.1797 41.5962 38.0788 41.6809 37.9355C41.772 37.7858 41.8176 37.5938 41.8176 37.3594V31.4121C41.8176 31.2103 41.7687 31.0117 41.6711 30.8164C41.5799 30.6211 41.4497 30.4648 41.2805 30.3477C41.1568 30.2695 41.0103 30.2142 40.841 30.1816C40.6717 30.1426 40.4895 30.1165 40.2941 30.1035V29.4688L43.4973 29.2539L43.634 29.3906V30.748H43.6828C44.0865 30.2207 44.5357 29.8203 45.0305 29.5469C45.5253 29.2734 45.9777 29.1367 46.3879 29.1367C46.798 29.1367 47.1301 29.2702 47.384 29.5371C47.6444 29.804 47.7746 30.1621 47.7746 30.6113ZM58.9258 38.8242C58.6198 38.9349 58.3496 39.0228 58.1152 39.0879C57.8874 39.1595 57.627 39.1953 57.334 39.1953C56.8262 39.1953 56.4193 39.0781 56.1133 38.8438C55.8138 38.6029 55.6217 38.2546 55.5371 37.7988H55.4785C55.0553 38.2676 54.5996 38.6257 54.1113 38.873C53.6296 39.1204 53.0469 39.2441 52.3633 39.2441C51.6406 39.2441 51.0449 39.0228 50.5762 38.5801C50.1139 38.1374 49.8828 37.5579 49.8828 36.8418C49.8828 36.4707 49.9349 36.1387 50.0391 35.8457C50.1432 35.5527 50.2995 35.2891 50.5078 35.0547C50.6706 34.8594 50.8854 34.6868 51.1523 34.5371C51.4193 34.3809 51.6699 34.2572 51.9043 34.166C52.1973 34.0553 52.7897 33.8503 53.6816 33.5508C54.5801 33.2513 55.1855 33.0169 55.498 32.8477V31.8809C55.498 31.7962 55.4785 31.6335 55.4395 31.3926C55.4069 31.1517 55.332 30.9238 55.2148 30.709C55.0846 30.4681 54.8991 30.2598 54.6582 30.084C54.4238 29.9017 54.0885 29.8105 53.6523 29.8105C53.3529 29.8105 53.0729 29.8626 52.8125 29.9668C52.5586 30.0645 52.3796 30.1686 52.2754 30.2793C52.2754 30.4095 52.3047 30.6016 52.3633 30.8555C52.4284 31.1094 52.4609 31.3438 52.4609 31.5586C52.4609 31.7865 52.3568 31.9948 52.1484 32.1836C51.9466 32.3724 51.6634 32.4668 51.2988 32.4668C50.9733 32.4668 50.7324 32.3529 50.5762 32.125C50.4264 31.8906 50.3516 31.6302 50.3516 31.3438C50.3516 31.0443 50.4557 30.7578 50.6641 30.4844C50.8789 30.2109 51.1556 29.9668 51.4941 29.752C51.7871 29.5697 52.1419 29.4167 52.5586 29.293C52.9753 29.1628 53.3822 29.0977 53.7793 29.0977C54.3262 29.0977 54.8014 29.1367 55.2051 29.2148C55.6152 29.2865 55.9863 29.446 56.3184 29.6934C56.6504 29.9342 56.901 30.263 57.0703 30.6797C57.2461 31.0898 57.334 31.6204 57.334 32.2715C57.334 33.2025 57.3242 34.0293 57.3047 34.752C57.2852 35.4681 57.2754 36.2526 57.2754 37.1055C57.2754 37.3594 57.3177 37.5612 57.4023 37.7109C57.4935 37.8607 57.6302 37.9876 57.8125 38.0918C57.9102 38.1504 58.0632 38.1829 58.2715 38.1895C58.4863 38.196 58.7044 38.1992 58.9258 38.1992V38.8242ZM55.5176 33.668C54.9642 33.8307 54.4792 33.9902 54.0625 34.1465C53.6458 34.3027 53.2585 34.498 52.9004 34.7324C52.5749 34.9538 52.3177 35.2174 52.1289 35.5234C51.9401 35.8229 51.8457 36.181 51.8457 36.5977C51.8457 37.138 51.9857 37.5352 52.2656 37.7891C52.5521 38.043 52.9134 38.1699 53.3496 38.1699C53.8118 38.1699 54.2188 38.0592 54.5703 37.8379C54.9219 37.61 55.2181 37.3431 55.459 37.0371L55.5176 33.668ZM71.7176 39H67.0008V38.3555C67.1505 38.3424 67.3133 38.3294 67.4891 38.3164C67.6714 38.3034 67.8211 38.2773 67.9383 38.2383C68.1206 38.1797 68.254 38.0788 68.3387 37.9355C68.4298 37.7858 68.4754 37.5938 68.4754 37.3594V32.4082C68.4754 31.7246 68.3126 31.1973 67.9871 30.8262C67.6681 30.4551 67.2775 30.2695 66.8152 30.2695C66.4702 30.2695 66.1544 30.3249 65.868 30.4355C65.5815 30.5397 65.3276 30.6699 65.1063 30.8262C64.8914 30.9759 64.7189 31.1387 64.5887 31.3145C64.465 31.4837 64.3738 31.6204 64.3152 31.7246V37.2617C64.3152 37.4831 64.3608 37.6654 64.452 37.8086C64.5431 37.9518 64.6798 38.0625 64.8621 38.1406C64.9988 38.2057 65.1453 38.2546 65.3016 38.2871C65.4643 38.3197 65.6303 38.3424 65.7996 38.3555V39H61.0828V38.3555C61.2326 38.3424 61.3855 38.3294 61.5418 38.3164C61.7046 38.3034 61.8445 38.2773 61.9617 38.2383C62.144 38.1797 62.2775 38.0788 62.3621 37.9355C62.4533 37.7858 62.4988 37.5938 62.4988 37.3594V31.4121C62.4988 31.1908 62.45 30.9889 62.3523 30.8066C62.2612 30.6178 62.131 30.4648 61.9617 30.3477C61.838 30.2695 61.6915 30.2142 61.5223 30.1816C61.353 30.1426 61.1707 30.1165 60.9754 30.1035V29.4688L64.1785 29.2539L64.3152 29.3906V30.748H64.3641C64.5203 30.5918 64.7156 30.4062 64.95 30.1914C65.1844 29.9701 65.4057 29.791 65.6141 29.6543C65.8549 29.498 66.1414 29.3678 66.4734 29.2637C66.8055 29.1595 67.1798 29.1074 67.5965 29.1074C68.521 29.1074 69.2046 29.3971 69.6473 29.9766C70.0965 30.5495 70.3211 31.3145 70.3211 32.2715V37.2812C70.3211 37.5091 70.3602 37.6947 70.4383 37.8379C70.5164 37.9746 70.6499 38.082 70.8387 38.1602C70.9949 38.2253 71.1284 38.2708 71.2391 38.2969C71.3563 38.3229 71.5158 38.3424 71.7176 38.3555V39ZM78.5523 39.2539C77.1591 39.2539 76.0686 38.7917 75.2809 37.8672C74.4931 36.9427 74.0992 35.7025 74.0992 34.1465C74.0992 33.4694 74.2034 32.8379 74.4117 32.252C74.6266 31.6595 74.9358 31.1224 75.3395 30.6406C75.7236 30.1784 76.2053 29.8073 76.7848 29.5273C77.3642 29.2409 77.9957 29.0977 78.6793 29.0977C79.6233 29.0977 80.3915 29.3255 80.984 29.7812C81.5764 30.2305 81.8727 30.8457 81.8727 31.627C81.8727 31.9525 81.7945 32.2422 81.6383 32.4961C81.482 32.7435 81.2249 32.8672 80.8668 32.8672C80.4827 32.8672 80.1832 32.7695 79.9684 32.5742C79.76 32.3789 79.6559 32.1608 79.6559 31.9199C79.6559 31.627 79.6949 31.3275 79.773 31.0215C79.8512 30.709 79.8967 30.4811 79.9098 30.3379C79.7926 30.1361 79.6168 30.0026 79.3824 29.9375C79.1546 29.8659 78.9072 29.8301 78.6402 29.8301C78.3277 29.8301 78.0283 29.8984 77.7418 30.0352C77.4619 30.1654 77.1884 30.4095 76.9215 30.7676C76.6806 31.0931 76.4853 31.5326 76.3355 32.0859C76.1858 32.6393 76.1109 33.3001 76.1109 34.0684C76.1109 35.2793 76.3779 36.2689 76.9117 37.0371C77.4521 37.7988 78.1585 38.1797 79.0309 38.1797C79.6624 38.1797 80.1897 38.0267 80.6129 37.7207C81.0426 37.4147 81.4397 36.9557 81.8043 36.3438L82.4293 36.7539C81.9996 37.5221 81.4332 38.1309 80.7301 38.5801C80.027 39.0293 79.301 39.2539 78.5523 39.2539ZM92.9359 36.7344C92.5323 37.5026 91.9919 38.1146 91.3148 38.5703C90.6378 39.026 89.8598 39.2539 88.9809 39.2539C88.2061 39.2539 87.5258 39.1172 86.9398 38.8438C86.3604 38.5703 85.8819 38.1992 85.5043 37.7305C85.1267 37.2617 84.8435 36.7148 84.6547 36.0898C84.4724 35.4648 84.3812 34.804 84.3812 34.1074C84.3812 33.4824 84.4789 32.8704 84.6742 32.2715C84.876 31.666 85.169 31.1224 85.5531 30.6406C85.9242 30.1784 86.3832 29.8073 86.9301 29.5273C87.4835 29.2409 88.102 29.0977 88.7855 29.0977C89.4887 29.0977 90.0909 29.2083 90.5922 29.4297C91.0935 29.651 91.5004 29.9538 91.8129 30.3379C92.1124 30.7025 92.3337 31.1322 92.477 31.627C92.6267 32.1217 92.7016 32.6589 92.7016 33.2383V33.8828H86.3246C86.3246 34.5143 86.3832 35.0872 86.5004 35.6016C86.6241 36.1159 86.8161 36.5684 87.0766 36.959C87.3305 37.3366 87.6625 37.6361 88.0727 37.8574C88.4828 38.0723 88.9711 38.1797 89.5375 38.1797C90.1169 38.1797 90.615 38.0462 91.0316 37.7793C91.4548 37.5059 91.8617 37.0176 92.2523 36.3145L92.9359 36.7344ZM90.7777 33.0625C90.7777 32.6979 90.7452 32.3073 90.6801 31.8906C90.6215 31.474 90.5238 31.1257 90.3871 30.8457C90.2374 30.5462 90.0323 30.3021 89.7719 30.1133C89.5115 29.9245 89.1762 29.8301 88.766 29.8301C88.0824 29.8301 87.5128 30.1165 87.057 30.6895C86.6078 31.2559 86.3637 32.0469 86.3246 33.0625H90.7777ZM108.441 25.0449C108.441 25.3379 108.363 25.5853 108.207 25.7871C108.051 25.9889 107.813 26.0898 107.494 26.0898C107.292 26.0898 107.113 26.0475 106.957 25.9629C106.807 25.8783 106.667 25.7643 106.537 25.6211C106.407 25.4779 106.286 25.3151 106.176 25.1328C106.065 24.9505 105.971 24.804 105.893 24.6934C105.456 24.7129 105.118 25.0189 104.877 25.6113C104.643 26.1973 104.525 27.1348 104.525 28.4238V29.4102H107.006V30.3477H104.525V37.2617C104.525 37.4896 104.568 37.6751 104.652 37.8184C104.743 37.9616 104.883 38.069 105.072 38.1406C105.229 38.1992 105.437 38.248 105.697 38.2871C105.958 38.3197 106.182 38.3424 106.371 38.3555V39H101.293V38.3555C101.443 38.3424 101.596 38.3294 101.752 38.3164C101.915 38.3034 102.055 38.2773 102.172 38.2383C102.354 38.1797 102.488 38.0788 102.572 37.9355C102.663 37.7858 102.709 37.5938 102.709 37.3594V30.3477H100.805V29.4102H102.709V28.7949C102.709 27.3301 103.087 26.1452 103.842 25.2402C104.604 24.3288 105.554 23.873 106.693 23.873C107.273 23.873 107.709 23.987 108.002 24.2148C108.295 24.4427 108.441 24.7194 108.441 25.0449ZM116.35 30.6113C116.35 30.9434 116.269 31.2396 116.106 31.5C115.943 31.7539 115.693 31.8809 115.354 31.8809C114.99 31.8809 114.71 31.7865 114.514 31.5977C114.326 31.4089 114.231 31.2005 114.231 30.9727C114.231 30.8294 114.241 30.6992 114.261 30.582C114.287 30.4648 114.309 30.3477 114.329 30.2305C114.023 30.2305 113.665 30.3542 113.255 30.6016C112.845 30.849 112.496 31.2005 112.21 31.6562V37.2617C112.21 37.4896 112.252 37.6751 112.337 37.8184C112.428 37.9616 112.568 38.069 112.757 38.1406C112.919 38.2057 113.128 38.2546 113.382 38.2871C113.642 38.3197 113.867 38.3424 114.055 38.3555V39H108.977V38.3555C109.127 38.3424 109.28 38.3294 109.436 38.3164C109.599 38.3034 109.739 38.2773 109.856 38.2383C110.039 38.1797 110.172 38.0788 110.257 37.9355C110.348 37.7858 110.393 37.5938 110.393 37.3594V31.4121C110.393 31.2103 110.345 31.0117 110.247 30.8164C110.156 30.6211 110.026 30.4648 109.856 30.3477C109.733 30.2695 109.586 30.2142 109.417 30.1816C109.248 30.1426 109.065 30.1165 108.87 30.1035V29.4688L112.073 29.2539L112.21 29.3906V30.748H112.259C112.662 30.2207 113.111 29.8203 113.606 29.5469C114.101 29.2734 114.554 29.1367 114.964 29.1367C115.374 29.1367 115.706 29.2702 115.96 29.5371C116.22 29.804 116.35 30.1621 116.35 30.6113ZM127.765 34.0879C127.765 34.765 127.658 35.4323 127.443 36.0898C127.228 36.7409 126.922 37.2943 126.525 37.75C126.076 38.2708 125.555 38.6582 124.963 38.9121C124.37 39.166 123.706 39.293 122.97 39.293C122.358 39.293 121.776 39.179 121.222 38.9512C120.669 38.7168 120.177 38.3783 119.748 37.9355C119.324 37.4993 118.986 36.9688 118.732 36.3438C118.485 35.7122 118.361 35.0059 118.361 34.2246C118.361 32.7207 118.797 31.4902 119.67 30.5332C120.548 29.5762 121.698 29.0977 123.117 29.0977C124.464 29.0977 125.574 29.5534 126.447 30.4648C127.326 31.3698 127.765 32.5775 127.765 34.0879ZM125.744 34.1074C125.744 33.6191 125.695 33.1048 125.597 32.5645C125.5 32.0176 125.353 31.5553 125.158 31.1777C124.949 30.7741 124.676 30.4518 124.338 30.2109C123.999 29.9635 123.586 29.8398 123.097 29.8398C122.596 29.8398 122.166 29.9635 121.808 30.2109C121.457 30.4583 121.17 30.7969 120.949 31.2266C120.74 31.6237 120.594 32.0762 120.509 32.584C120.425 33.0918 120.382 33.5833 120.382 34.0586C120.382 34.6836 120.431 35.263 120.529 35.7969C120.633 36.3242 120.796 36.7962 121.017 37.2129C121.239 37.6296 121.515 37.9583 121.847 38.1992C122.186 38.4336 122.602 38.5508 123.097 38.5508C123.911 38.5508 124.556 38.1569 125.031 37.3691C125.506 36.5814 125.744 35.4941 125.744 34.1074ZM146.856 39H142.159V38.3555C142.308 38.3424 142.458 38.3294 142.608 38.3164C142.764 38.3034 142.901 38.2773 143.018 38.2383C143.2 38.1797 143.334 38.0788 143.418 37.9355C143.51 37.7858 143.555 37.5938 143.555 37.3594V32.3887C143.555 31.7116 143.399 31.1908 143.086 30.8262C142.78 30.4551 142.396 30.2695 141.934 30.2695C141.615 30.2695 141.316 30.3184 141.036 30.416C140.756 30.5137 140.498 30.6504 140.264 30.8262C140.075 30.9694 139.916 31.1257 139.786 31.2949C139.662 31.4577 139.567 31.5944 139.502 31.7051V37.2617C139.502 37.4896 139.541 37.6784 139.62 37.8281C139.698 37.9714 139.831 38.082 140.02 38.1602C140.17 38.2188 140.303 38.2643 140.42 38.2969C140.544 38.3229 140.704 38.3424 140.899 38.3555V39H136.299V38.3555C136.449 38.3424 136.592 38.3294 136.729 38.3164C136.872 38.3034 137.002 38.2773 137.12 38.2383C137.302 38.1797 137.435 38.0788 137.52 37.9355C137.611 37.7858 137.657 37.5938 137.657 37.3594V32.3887C137.657 31.7116 137.5 31.1908 137.188 30.8262C136.882 30.4551 136.498 30.2695 136.036 30.2695C135.717 30.2695 135.417 30.3216 135.137 30.4258C134.857 30.5234 134.6 30.6602 134.366 30.8359C134.177 30.9792 134.017 31.1419 133.887 31.3242C133.757 31.5 133.659 31.6335 133.594 31.7246V37.2422C133.594 37.4635 133.64 37.6491 133.731 37.7988C133.822 37.9486 133.959 38.0625 134.141 38.1406C134.278 38.2057 134.418 38.2546 134.561 38.2871C134.704 38.3197 134.864 38.3424 135.039 38.3555V39H130.362V38.3555C130.511 38.3424 130.664 38.3294 130.821 38.3164C130.983 38.3034 131.123 38.2773 131.241 38.2383C131.423 38.1797 131.556 38.0788 131.641 37.9355C131.732 37.7858 131.778 37.5938 131.778 37.3594V31.373C131.778 31.1647 131.729 30.9792 131.631 30.8164C131.54 30.6471 131.41 30.5039 131.241 30.3867C131.117 30.3086 130.964 30.2467 130.782 30.2012C130.599 30.1491 130.411 30.1165 130.215 30.1035V29.4688L133.438 29.2539L133.575 29.3906V30.7676H133.643C133.806 30.6048 134.004 30.4128 134.239 30.1914C134.473 29.9701 134.691 29.791 134.893 29.6543C135.121 29.498 135.404 29.3678 135.743 29.2637C136.088 29.1595 136.459 29.1074 136.856 29.1074C137.481 29.1074 138.018 29.2767 138.467 29.6152C138.916 29.9473 139.239 30.3509 139.434 30.8262C139.668 30.5983 139.873 30.3997 140.049 30.2305C140.232 30.0547 140.469 29.8691 140.762 29.6738C141.01 29.5046 141.299 29.3678 141.631 29.2637C141.97 29.1595 142.344 29.1074 142.754 29.1074C143.568 29.1074 144.213 29.3743 144.688 29.9082C145.163 30.4421 145.401 31.2624 145.401 32.3691V37.2617C145.401 37.4896 145.44 37.6784 145.518 37.8281C145.596 37.9714 145.73 38.082 145.918 38.1602C146.068 38.2188 146.215 38.2643 146.358 38.2969C146.508 38.3229 146.674 38.3424 146.856 38.3555V39ZM161.15 38.5801C160.727 38.7559 160.327 38.9023 159.949 39.0195C159.572 39.1432 159.109 39.2051 158.562 39.2051C157.755 39.2051 157.186 39.0033 156.854 38.5996C156.528 38.1895 156.365 37.6133 156.365 36.8711V30.3477H154.627V29.4102H156.404V26.4121H158.182V29.4102H160.945V30.3477H158.201V35.7285C158.201 36.1322 158.214 36.4707 158.24 36.7441C158.273 37.0111 158.344 37.2454 158.455 37.4473C158.559 37.6361 158.715 37.7793 158.924 37.877C159.132 37.9746 159.412 38.0234 159.764 38.0234C159.926 38.0234 160.164 38.0104 160.477 37.9844C160.796 37.9518 161.02 37.9128 161.15 37.8672V38.5801ZM173.776 39H169.05V38.3555C169.199 38.3424 169.365 38.3294 169.548 38.3164C169.73 38.3034 169.88 38.2773 169.997 38.2383C170.179 38.1797 170.313 38.0788 170.397 37.9355C170.488 37.7858 170.534 37.5938 170.534 37.3594V32.4082C170.534 31.7246 170.371 31.1973 170.046 30.8262C169.727 30.4551 169.336 30.2695 168.874 30.2695C168.535 30.2695 168.22 30.3249 167.927 30.4355C167.64 30.5397 167.383 30.6699 167.155 30.8262C166.934 30.9889 166.764 31.1517 166.647 31.3145C166.53 31.4772 166.439 31.6139 166.374 31.7246V37.2617C166.374 37.4831 166.416 37.6654 166.501 37.8086C166.592 37.9518 166.729 38.0625 166.911 38.1406C167.054 38.2057 167.201 38.2546 167.35 38.2871C167.507 38.3197 167.676 38.3424 167.858 38.3555V39H163.132V38.3555C163.281 38.3424 163.438 38.3294 163.6 38.3164C163.763 38.2969 163.9 38.2708 164.011 38.2383C164.193 38.1797 164.33 38.0788 164.421 37.9355C164.512 37.7858 164.557 37.5938 164.557 37.3594V26.1484C164.557 25.9271 164.505 25.7057 164.401 25.4844C164.304 25.263 164.173 25.097 164.011 24.9863C163.893 24.9017 163.685 24.8431 163.386 24.8105C163.093 24.7715 162.855 24.7454 162.673 24.7324V24.1074L166.237 23.8828L166.374 24.0293V30.748H166.413C166.628 30.5332 166.823 30.3444 166.999 30.1816C167.175 30.0124 167.406 29.8366 167.692 29.6543C167.94 29.498 168.229 29.3678 168.561 29.2637C168.9 29.1595 169.277 29.1074 169.694 29.1074C170.554 29.1074 171.214 29.3809 171.677 29.9277C172.139 30.4681 172.37 31.2493 172.37 32.2715V37.2812C172.37 37.5091 172.409 37.6947 172.487 37.8379C172.572 37.9746 172.708 38.082 172.897 38.1602C173.047 38.2188 173.18 38.2643 173.298 38.2969C173.421 38.3229 173.581 38.3424 173.776 38.3555V39ZM184.712 36.7344C184.309 37.5026 183.768 38.1146 183.091 38.5703C182.414 39.026 181.636 39.2539 180.757 39.2539C179.983 39.2539 179.302 39.1172 178.716 38.8438C178.137 38.5703 177.658 38.1992 177.281 37.7305C176.903 37.2617 176.62 36.7148 176.431 36.0898C176.249 35.4648 176.158 34.804 176.158 34.1074C176.158 33.4824 176.255 32.8704 176.451 32.2715C176.653 31.666 176.946 31.1224 177.33 30.6406C177.701 30.1784 178.16 29.8073 178.707 29.5273C179.26 29.2409 179.879 29.0977 180.562 29.0977C181.265 29.0977 181.867 29.2083 182.369 29.4297C182.87 29.651 183.277 29.9538 183.589 30.3379C183.889 30.7025 184.11 31.1322 184.254 31.627C184.403 32.1217 184.478 32.6589 184.478 33.2383V33.8828H178.101C178.101 34.5143 178.16 35.0872 178.277 35.6016C178.401 36.1159 178.593 36.5684 178.853 36.959C179.107 37.3366 179.439 37.6361 179.849 37.8574C180.259 38.0723 180.748 38.1797 181.314 38.1797C181.893 38.1797 182.392 38.0462 182.808 37.7793C183.231 37.5059 183.638 37.0176 184.029 36.3145L184.712 36.7344ZM182.554 33.0625C182.554 32.6979 182.522 32.3073 182.457 31.8906C182.398 31.474 182.3 31.1257 182.164 30.8457C182.014 30.5462 181.809 30.3021 181.548 30.1133C181.288 29.9245 180.953 29.8301 180.543 29.8301C179.859 29.8301 179.289 30.1165 178.834 30.6895C178.384 31.2559 178.14 32.0469 178.101 33.0625H182.554ZM199.407 34.2832C199.674 34.5176 199.879 34.7878 200.023 35.0938C200.166 35.3997 200.238 35.7741 200.238 36.2168C200.238 37.1087 199.902 37.8379 199.232 38.4043C198.568 38.9707 197.705 39.2539 196.644 39.2539C196.084 39.2539 195.566 39.153 195.091 38.9512C194.622 38.7493 194.287 38.5638 194.085 38.3945L193.89 39.0293H193.157L193.06 35.6797H193.734C193.786 35.9336 193.896 36.2298 194.066 36.5684C194.235 36.9069 194.44 37.2129 194.681 37.4863C194.935 37.7728 195.238 38.0137 195.589 38.209C195.947 38.4043 196.348 38.502 196.79 38.502C197.415 38.502 197.897 38.362 198.236 38.082C198.574 37.7956 198.743 37.3887 198.743 36.8613C198.743 36.5879 198.688 36.3535 198.577 36.1582C198.473 35.9564 198.317 35.7806 198.109 35.6309C197.894 35.4811 197.63 35.3477 197.318 35.2305C197.005 35.1068 196.657 34.9863 196.273 34.8691C195.967 34.778 195.625 34.6543 195.247 34.498C194.876 34.3353 194.557 34.1465 194.29 33.9316C194.004 33.7038 193.769 33.4238 193.587 33.0918C193.405 32.7598 193.314 32.3691 193.314 31.9199C193.314 31.1322 193.607 30.4648 194.193 29.918C194.779 29.3711 195.563 29.0977 196.546 29.0977C196.924 29.0977 197.308 29.1465 197.698 29.2441C198.096 29.3418 198.418 29.459 198.665 29.5957L198.89 29.0879H199.593L199.739 32.1836H199.066C198.929 31.4935 198.633 30.9336 198.177 30.5039C197.728 30.0677 197.178 29.8496 196.527 29.8496C195.993 29.8496 195.573 29.9831 195.267 30.25C194.961 30.5169 194.808 30.8392 194.808 31.2168C194.808 31.5098 194.857 31.7539 194.954 31.9492C195.058 32.1445 195.211 32.3105 195.413 32.4473C195.609 32.5775 195.853 32.7012 196.146 32.8184C196.445 32.929 196.813 33.056 197.249 33.1992C197.679 33.3359 198.083 33.4954 198.46 33.6777C198.844 33.86 199.16 34.0618 199.407 34.2832ZM208.85 38.5801C208.426 38.7559 208.026 38.9023 207.648 39.0195C207.271 39.1432 206.809 39.2051 206.262 39.2051C205.454 39.2051 204.885 39.0033 204.553 38.5996C204.227 38.1895 204.064 37.6133 204.064 36.8711V30.3477H202.326V29.4102H204.104V26.4121H205.881V29.4102H208.645V30.3477H205.9V35.7285C205.9 36.1322 205.913 36.4707 205.939 36.7441C205.972 37.0111 206.044 37.2454 206.154 37.4473C206.258 37.6361 206.415 37.7793 206.623 37.877C206.831 37.9746 207.111 38.0234 207.463 38.0234C207.626 38.0234 207.863 38.0104 208.176 37.9844C208.495 37.9518 208.719 37.9128 208.85 37.8672V38.5801ZM220.401 34.0879C220.401 34.765 220.294 35.4323 220.079 36.0898C219.864 36.7409 219.558 37.2943 219.161 37.75C218.712 38.2708 218.191 38.6582 217.598 38.9121C217.006 39.166 216.342 39.293 215.606 39.293C214.994 39.293 214.412 39.179 213.858 38.9512C213.305 38.7168 212.813 38.3783 212.384 37.9355C211.96 37.4993 211.622 36.9688 211.368 36.3438C211.121 35.7122 210.997 35.0059 210.997 34.2246C210.997 32.7207 211.433 31.4902 212.305 30.5332C213.184 29.5762 214.333 29.0977 215.753 29.0977C217.1 29.0977 218.21 29.5534 219.083 30.4648C219.962 31.3698 220.401 32.5775 220.401 34.0879ZM218.38 34.1074C218.38 33.6191 218.331 33.1048 218.233 32.5645C218.136 32.0176 217.989 31.5553 217.794 31.1777C217.585 30.7741 217.312 30.4518 216.973 30.2109C216.635 29.9635 216.221 29.8398 215.733 29.8398C215.232 29.8398 214.802 29.9635 214.444 30.2109C214.093 30.4583 213.806 30.7969 213.585 31.2266C213.376 31.6237 213.23 32.0762 213.145 32.584C213.061 33.0918 213.018 33.5833 213.018 34.0586C213.018 34.6836 213.067 35.263 213.165 35.7969C213.269 36.3242 213.432 36.7962 213.653 37.2129C213.874 37.6296 214.151 37.9583 214.483 38.1992C214.822 38.4336 215.238 38.5508 215.733 38.5508C216.547 38.5508 217.192 38.1569 217.667 37.3691C218.142 36.5814 218.38 35.4941 218.38 34.1074ZM230.371 30.6113C230.371 30.9434 230.289 31.2396 230.127 31.5C229.964 31.7539 229.713 31.8809 229.375 31.8809C229.01 31.8809 228.73 31.7865 228.535 31.5977C228.346 31.4089 228.252 31.2005 228.252 30.9727C228.252 30.8294 228.261 30.6992 228.281 30.582C228.307 30.4648 228.33 30.3477 228.349 30.2305C228.043 30.2305 227.685 30.3542 227.275 30.6016C226.865 30.849 226.517 31.2005 226.23 31.6562V37.2617C226.23 37.4896 226.272 37.6751 226.357 37.8184C226.448 37.9616 226.588 38.069 226.777 38.1406C226.94 38.2057 227.148 38.2546 227.402 38.2871C227.662 38.3197 227.887 38.3424 228.076 38.3555V39H222.998V38.3555C223.147 38.3424 223.3 38.3294 223.457 38.3164C223.619 38.3034 223.759 38.2773 223.877 38.2383C224.059 38.1797 224.192 38.0788 224.277 37.9355C224.368 37.7858 224.414 37.5938 224.414 37.3594V31.4121C224.414 31.2103 224.365 31.0117 224.267 30.8164C224.176 30.6211 224.046 30.4648 223.877 30.3477C223.753 30.2695 223.606 30.2142 223.437 30.1816C223.268 30.1426 223.086 30.1165 222.89 30.1035V29.4688L226.093 29.2539L226.23 29.3906V30.748H226.279C226.683 30.2207 227.132 29.8203 227.627 29.5469C228.121 29.2734 228.574 29.1367 228.984 29.1367C229.394 29.1367 229.726 29.2702 229.98 29.5371C230.24 29.804 230.371 30.1621 230.371 30.6113ZM240.955 36.7344C240.552 37.5026 240.011 38.1146 239.334 38.5703C238.657 39.026 237.879 39.2539 237 39.2539C236.226 39.2539 235.545 39.1172 234.959 38.8438C234.38 38.5703 233.901 38.1992 233.524 37.7305C233.146 37.2617 232.863 36.7148 232.674 36.0898C232.492 35.4648 232.401 34.804 232.401 34.1074C232.401 33.4824 232.498 32.8704 232.694 32.2715C232.896 31.666 233.189 31.1224 233.573 30.6406C233.944 30.1784 234.403 29.8073 234.95 29.5273C235.503 29.2409 236.121 29.0977 236.805 29.0977C237.508 29.0977 238.11 29.2083 238.612 29.4297C239.113 29.651 239.52 29.9538 239.832 30.3379C240.132 30.7025 240.353 31.1322 240.496 31.627C240.646 32.1217 240.721 32.6589 240.721 33.2383V33.8828H234.344C234.344 34.5143 234.403 35.0872 234.52 35.6016C234.644 36.1159 234.836 36.5684 235.096 36.959C235.35 37.3366 235.682 37.6361 236.092 37.8574C236.502 38.0723 236.991 38.1797 237.557 38.1797C238.136 38.1797 238.635 38.0462 239.051 37.7793C239.474 37.5059 239.881 37.0176 240.272 36.3145L240.955 36.7344ZM238.797 33.0625C238.797 32.6979 238.765 32.3073 238.7 31.8906C238.641 31.474 238.543 31.1257 238.407 30.8457C238.257 30.5462 238.052 30.3021 237.791 30.1133C237.531 29.9245 237.196 29.8301 236.786 29.8301C236.102 29.8301 235.532 30.1165 235.077 30.6895C234.627 31.2559 234.383 32.0469 234.344 33.0625H238.797ZM248.923 33.1797C248.923 35.8359 248.415 37.9486 247.4 39.5176C246.39 41.0866 244.997 41.9818 243.22 42.2031V41.4023C244.496 41.168 245.453 40.3639 246.091 38.9902C246.729 37.61 247.048 35.6797 247.048 33.1992C247.048 30.5951 246.723 28.6094 246.071 27.2422C245.42 25.875 244.47 25.0775 243.22 24.8496V24.0391C244.997 24.2734 246.39 25.1816 247.4 26.7637C248.415 28.3392 248.923 30.4779 248.923 33.1797Z" fill="#F1CDB3"/>
</svg>
