<svg width="225" height="20" viewBox="0 0 225 20" fill="none" xmlns="http://www.w3.org/2000/svg">
<path d="M6.90039 16H0.318359V15.3066C0.513672 15.2936 0.816406 15.2676 1.22656 15.2285C1.64323 15.1829 1.92969 15.1374 2.08594 15.0918C2.28776 15.0267 2.44076 14.9225 2.54492 14.7793C2.6556 14.6296 2.71094 14.4082 2.71094 14.1152V7.25977H0.279297V6.43945H0.816406C1.51953 6.43945 2.14779 6.30924 2.70117 6.04883C3.26107 5.78841 3.66146 5.50846 3.90234 5.20898H4.71289C4.69336 5.63216 4.67383 6.12695 4.6543 6.69336C4.63477 7.25977 4.625 7.76758 4.625 8.2168V14.0078C4.625 14.2357 4.67383 14.4408 4.77148 14.623C4.87565 14.7988 5.02214 14.929 5.21094 15.0137C5.38021 15.0853 5.6569 15.1504 6.04102 15.209C6.42513 15.2676 6.71159 15.3001 6.90039 15.3066V16ZM19.702 12.3281C19.702 13.4219 19.2299 14.3626 18.2859 15.1504C17.3419 15.9382 16.1017 16.332 14.5652 16.332C13.1264 16.332 11.9741 15.9707 11.1082 15.248C10.2423 14.5254 9.80937 13.5944 9.80937 12.4551C9.80937 11.6152 10.0633 10.9154 10.5711 10.3555C11.0854 9.78906 11.8439 9.31055 12.8465 8.91992C12.0197 8.45768 11.4012 7.94987 10.991 7.39648C10.5809 6.8431 10.3758 6.2181 10.3758 5.52148C10.3758 4.46029 10.825 3.57161 11.7234 2.85547C12.6284 2.13932 13.7091 1.78125 14.9656 1.78125C16.2221 1.78125 17.2378 2.11979 18.0125 2.79688C18.7937 3.47396 19.1844 4.32357 19.1844 5.3457C19.1844 6.00326 18.9695 6.62826 18.5398 7.2207C18.1102 7.80664 17.4786 8.28841 16.6453 8.66602C17.726 9.12826 18.504 9.63932 18.9793 10.1992C19.4611 10.7591 19.702 11.4688 19.702 12.3281ZM17.3387 5.23828C17.3387 4.44401 17.101 3.79948 16.6258 3.30469C16.157 2.80339 15.5548 2.55273 14.8191 2.55273C14.0835 2.55273 13.4812 2.79362 13.0125 3.27539C12.5437 3.75065 12.3094 4.3431 12.3094 5.05273C12.3094 5.73633 12.5763 6.31576 13.1102 6.79102C13.644 7.26628 14.5945 7.77409 15.9617 8.31445C16.45 8.00195 16.8016 7.58854 17.0164 7.07422C17.2312 6.5599 17.3387 5.94792 17.3387 5.23828ZM17.7488 12.7871C17.7488 12.377 17.6609 12.0189 17.4852 11.7129C17.3094 11.4004 17.0555 11.1172 16.7234 10.8633C16.4044 10.6159 15.9585 10.3587 15.3855 10.0918C14.8191 9.81836 14.2039 9.54167 13.5398 9.26172C12.9148 9.60026 12.4559 10.0332 12.1629 10.5605C11.8699 11.0814 11.7234 11.6771 11.7234 12.3477C11.7234 13.3047 12.0034 14.0794 12.5633 14.6719C13.1297 15.2578 13.8816 15.5508 14.8191 15.5508C15.7176 15.5508 16.4305 15.2904 16.9578 14.7695C17.4852 14.2487 17.7488 13.5879 17.7488 12.7871ZM37.5316 9.64258C37.8246 9.9681 38.0395 10.3262 38.1762 10.7168C38.3194 11.1009 38.391 11.5501 38.391 12.0645C38.391 13.2884 37.9385 14.2975 37.0336 15.0918C36.1286 15.8861 35.0056 16.2832 33.6645 16.2832C33.046 16.2832 32.4275 16.1888 31.809 16C31.1905 15.8047 30.6566 15.5703 30.2074 15.2969L29.7875 16.0098H29.0063L28.8695 11.2637H29.6605C29.8233 11.8496 30.0121 12.3802 30.227 12.8555C30.4483 13.3242 30.738 13.7637 31.0961 14.1738C31.4346 14.5579 31.8285 14.8639 32.2777 15.0918C32.7335 15.3197 33.2608 15.4336 33.8598 15.4336C34.309 15.4336 34.6996 15.375 35.0316 15.2578C35.3702 15.1406 35.6436 14.9746 35.852 14.7598C36.0603 14.5449 36.2133 14.2943 36.3109 14.0078C36.4151 13.7148 36.4672 13.3796 36.4672 13.002C36.4672 12.4486 36.3109 11.9342 35.9984 11.459C35.6859 10.9772 35.2204 10.6126 34.602 10.3652C34.1788 10.196 33.6938 10.0104 33.1469 9.80859C32.6 9.60026 32.128 9.40495 31.7309 9.22266C30.9496 8.87109 30.3409 8.41211 29.9047 7.8457C29.475 7.27279 29.2602 6.52734 29.2602 5.60938C29.2602 5.08203 29.3676 4.59049 29.5824 4.13477C29.7973 3.67904 30.1033 3.27214 30.5004 2.91406C30.878 2.57552 31.324 2.31185 31.8383 2.12305C32.3526 1.92773 32.8897 1.83008 33.4496 1.83008C34.0876 1.83008 34.6573 1.92773 35.1586 2.12305C35.6664 2.31836 36.1286 2.54622 36.5453 2.80664L36.9457 2.14258H37.727L37.8051 6.74219H37.0141C36.8708 6.21484 36.7081 5.71029 36.5258 5.22852C36.35 4.74674 36.1189 4.31055 35.8324 3.91992C35.5525 3.54232 35.2107 3.24284 34.807 3.02148C34.4034 2.79362 33.9086 2.67969 33.3227 2.67969C32.7042 2.67969 32.1768 2.87826 31.7406 3.27539C31.3044 3.67253 31.0863 4.15755 31.0863 4.73047C31.0863 5.32943 31.2263 5.82747 31.5063 6.22461C31.7862 6.61523 32.1931 6.9375 32.727 7.19141C33.2022 7.41927 33.6677 7.61784 34.1234 7.78711C34.5857 7.94987 35.0316 8.12565 35.4613 8.31445C35.852 8.48372 36.2263 8.67578 36.5844 8.89062C36.949 9.10547 37.2647 9.35612 37.5316 9.64258ZM50.4699 11.0879C50.4699 11.765 50.3625 12.4323 50.1477 13.0898C49.9328 13.7409 49.6268 14.2943 49.2297 14.75C48.7805 15.2708 48.2596 15.6582 47.6672 15.9121C47.0747 16.166 46.4107 16.293 45.675 16.293C45.063 16.293 44.4803 16.179 43.927 15.9512C43.3736 15.7168 42.882 15.3783 42.4523 14.9355C42.0292 14.4993 41.6906 13.9688 41.4367 13.3438C41.1893 12.7122 41.0656 12.0059 41.0656 11.2246C41.0656 9.7207 41.5018 8.49023 42.3742 7.5332C43.2531 6.57617 44.4022 6.09766 45.8215 6.09766C47.1691 6.09766 48.2792 6.55339 49.1516 7.46484C50.0305 8.36979 50.4699 9.57747 50.4699 11.0879ZM48.4484 11.1074C48.4484 10.6191 48.3996 10.1048 48.302 9.56445C48.2043 9.01758 48.0578 8.55534 47.8625 8.17773C47.6542 7.77409 47.3807 7.45182 47.0422 7.21094C46.7036 6.96354 46.2902 6.83984 45.802 6.83984C45.3007 6.83984 44.871 6.96354 44.5129 7.21094C44.1613 7.45833 43.8749 7.79688 43.6535 8.22656C43.4452 8.6237 43.2987 9.07617 43.2141 9.58398C43.1294 10.0918 43.0871 10.5833 43.0871 11.0586C43.0871 11.6836 43.1359 12.263 43.2336 12.7969C43.3378 13.3242 43.5005 13.7962 43.7219 14.2129C43.9432 14.6296 44.2199 14.9583 44.552 15.1992C44.8905 15.4336 45.3072 15.5508 45.802 15.5508C46.6158 15.5508 47.2603 15.1569 47.7355 14.3691C48.2108 13.5814 48.4484 12.4941 48.4484 11.1074ZM63.3887 15.8242L60.2539 16.0391L60.1074 15.9023V14.6816H60.0488C59.8926 14.8444 59.7168 15.0202 59.5215 15.209C59.3262 15.3913 59.1016 15.5573 58.8477 15.707C58.5547 15.8828 58.2715 16.0163 57.998 16.1074C57.7246 16.1986 57.3372 16.2441 56.8359 16.2441C55.9831 16.2441 55.332 15.9674 54.8828 15.4141C54.4401 14.8542 54.2188 14.0436 54.2188 12.9824V8.37305C54.2188 8.13867 54.1732 7.94336 54.082 7.78711C53.9974 7.62435 53.8704 7.48438 53.7012 7.36719C53.584 7.28906 53.4375 7.23372 53.2617 7.20117C53.0859 7.16211 52.9004 7.13607 52.7051 7.12305V6.48828L55.918 6.25391L56.0645 6.39062V13.0801C56.0645 13.7767 56.2207 14.3008 56.5332 14.6523C56.8457 15.0039 57.2201 15.1797 57.6562 15.1797C58.0143 15.1797 58.3333 15.1243 58.6133 15.0137C58.8932 14.903 59.1276 14.7728 59.3164 14.623C59.4922 14.4863 59.6452 14.3431 59.7754 14.1934C59.9121 14.0371 60.0163 13.8939 60.0879 13.7637V8.30469C60.0879 8.08984 60.0423 7.90104 59.9512 7.73828C59.86 7.56901 59.7331 7.42578 59.5703 7.30859C59.4531 7.23047 59.2773 7.1849 59.043 7.17188C58.8151 7.15234 58.5579 7.13607 58.2715 7.12305V6.48828L61.7676 6.25391L61.9141 6.39062V14.0371C61.9141 14.2585 61.9596 14.4473 62.0508 14.6035C62.1419 14.7598 62.2689 14.8932 62.4316 15.0039C62.5488 15.0755 62.6888 15.1243 62.8516 15.1504C63.0143 15.1699 63.1934 15.1829 63.3887 15.1895V15.8242ZM71.7176 15.5801C71.2944 15.7559 70.894 15.9023 70.5164 16.0195C70.1388 16.1432 69.6766 16.2051 69.1297 16.2051C68.3224 16.2051 67.7527 16.0033 67.4207 15.5996C67.0952 15.1895 66.9324 14.6133 66.9324 13.8711V7.34766H65.1941V6.41016H66.9715V3.41211H68.7488V6.41016H71.5125V7.34766H68.7684V12.7285C68.7684 13.1322 68.7814 13.4707 68.8074 13.7441C68.84 14.0111 68.9116 14.2454 69.0223 14.4473C69.1264 14.6361 69.2827 14.7793 69.491 14.877C69.6993 14.9746 69.9793 15.0234 70.3309 15.0234C70.4936 15.0234 70.7312 15.0104 71.0437 14.9844C71.3628 14.9518 71.5874 14.9128 71.7176 14.8672V15.5801ZM84.3434 16H79.6168V15.3555C79.7665 15.3424 79.9326 15.3294 80.1148 15.3164C80.2971 15.3034 80.4469 15.2773 80.5641 15.2383C80.7464 15.1797 80.8798 15.0788 80.9645 14.9355C81.0556 14.7858 81.1012 14.5938 81.1012 14.3594V9.4082C81.1012 8.72461 80.9384 8.19727 80.6129 7.82617C80.2939 7.45508 79.9033 7.26953 79.441 7.26953C79.1025 7.26953 78.7867 7.32487 78.4938 7.43555C78.2073 7.53971 77.9501 7.66992 77.7223 7.82617C77.5009 7.98893 77.3316 8.15169 77.2145 8.31445C77.0973 8.47721 77.0061 8.61393 76.941 8.72461V14.2617C76.941 14.4831 76.9833 14.6654 77.068 14.8086C77.1591 14.9518 77.2958 15.0625 77.4781 15.1406C77.6214 15.2057 77.7678 15.2546 77.9176 15.2871C78.0738 15.3197 78.2431 15.3424 78.4254 15.3555V16H73.6988V15.3555C73.8486 15.3424 74.0048 15.3294 74.1676 15.3164C74.3303 15.2969 74.4671 15.2708 74.5777 15.2383C74.76 15.1797 74.8967 15.0788 74.9879 14.9355C75.079 14.7858 75.1246 14.5938 75.1246 14.3594V3.14844C75.1246 2.92708 75.0725 2.70573 74.9684 2.48438C74.8707 2.26302 74.7405 2.09701 74.5777 1.98633C74.4605 1.90169 74.2522 1.8431 73.9527 1.81055C73.6598 1.77148 73.4221 1.74544 73.2398 1.73242V1.10742L76.8043 0.882812L76.941 1.0293V7.74805H76.9801C77.1949 7.5332 77.3902 7.3444 77.566 7.18164C77.7418 7.01237 77.9729 6.83659 78.2594 6.6543C78.5068 6.49805 78.7965 6.36784 79.1285 6.26367C79.4671 6.15951 79.8447 6.10742 80.2613 6.10742C81.1207 6.10742 81.7815 6.38086 82.2438 6.92773C82.706 7.4681 82.9371 8.24935 82.9371 9.27148V14.2812C82.9371 14.5091 82.9762 14.6947 83.0543 14.8379C83.1389 14.9746 83.2757 15.082 83.4645 15.1602C83.6142 15.2188 83.7477 15.2643 83.8648 15.2969C83.9885 15.3229 84.148 15.3424 84.3434 15.3555V16ZM103.609 5.56055C103.609 6.2832 103.465 6.92448 103.179 7.48438C102.899 8.03776 102.508 8.49674 102.007 8.86133C101.512 9.22591 100.969 9.49284 100.376 9.66211C99.7837 9.83138 99.1555 9.91602 98.4914 9.91602H96.9387V14.1152C96.9387 14.3431 96.9745 14.5449 97.0461 14.7207C97.1242 14.89 97.2805 15.0202 97.5148 15.1113C97.632 15.1569 97.8371 15.1992 98.1301 15.2383C98.4296 15.2773 98.703 15.3001 98.9504 15.3066V16H93.0031V15.3066C93.1594 15.2936 93.384 15.2708 93.677 15.2383C93.9764 15.2057 94.1848 15.1634 94.302 15.1113C94.4973 15.0267 94.6372 14.903 94.7219 14.7402C94.813 14.5775 94.8586 14.3691 94.8586 14.1152V4.11523C94.8586 3.88737 94.826 3.68229 94.7609 3.5C94.6958 3.31771 94.5428 3.18099 94.302 3.08984C94.0546 3.00521 93.8072 2.94661 93.5598 2.91406C93.3189 2.875 93.1105 2.84896 92.9348 2.83594V2.14258H99.2629C100.552 2.14258 101.597 2.45508 102.398 3.08008C103.205 3.69857 103.609 4.52539 103.609 5.56055ZM100.64 7.92383C100.861 7.61133 101.008 7.28906 101.079 6.95703C101.151 6.61849 101.187 6.31576 101.187 6.04883C101.187 5.67773 101.141 5.30013 101.05 4.91602C100.965 4.5319 100.816 4.19661 100.601 3.91016C100.373 3.60417 100.073 3.36654 99.7023 3.19727C99.3313 3.02799 98.869 2.94336 98.3156 2.94336H96.9387V9.06641H97.9348C98.6379 9.06641 99.2076 8.95898 99.6438 8.74414C100.086 8.52279 100.418 8.24935 100.64 7.92383ZM115.277 15.8242C114.971 15.9349 114.701 16.0228 114.467 16.0879C114.239 16.1595 113.979 16.1953 113.686 16.1953C113.178 16.1953 112.771 16.0781 112.465 15.8438C112.165 15.6029 111.973 15.2546 111.889 14.7988H111.83C111.407 15.2676 110.951 15.6257 110.463 15.873C109.981 16.1204 109.398 16.2441 108.715 16.2441C107.992 16.2441 107.396 16.0228 106.928 15.5801C106.465 15.1374 106.234 14.5579 106.234 13.8418C106.234 13.4707 106.286 13.1387 106.391 12.8457C106.495 12.5527 106.651 12.2891 106.859 12.0547C107.022 11.8594 107.237 11.6868 107.504 11.5371C107.771 11.3809 108.021 11.2572 108.256 11.166C108.549 11.0553 109.141 10.8503 110.033 10.5508C110.932 10.2513 111.537 10.0169 111.85 9.84766V8.88086C111.85 8.79622 111.83 8.63346 111.791 8.39258C111.758 8.15169 111.684 7.92383 111.566 7.70898C111.436 7.4681 111.251 7.25977 111.01 7.08398C110.775 6.90169 110.44 6.81055 110.004 6.81055C109.704 6.81055 109.424 6.86263 109.164 6.9668C108.91 7.06445 108.731 7.16862 108.627 7.2793C108.627 7.40951 108.656 7.60156 108.715 7.85547C108.78 8.10938 108.812 8.34375 108.812 8.55859C108.812 8.78646 108.708 8.99479 108.5 9.18359C108.298 9.3724 108.015 9.4668 107.65 9.4668C107.325 9.4668 107.084 9.35286 106.928 9.125C106.778 8.89062 106.703 8.63021 106.703 8.34375C106.703 8.04427 106.807 7.75781 107.016 7.48438C107.23 7.21094 107.507 6.9668 107.846 6.75195C108.139 6.56966 108.493 6.41667 108.91 6.29297C109.327 6.16276 109.734 6.09766 110.131 6.09766C110.678 6.09766 111.153 6.13672 111.557 6.21484C111.967 6.28646 112.338 6.44596 112.67 6.69336C113.002 6.93424 113.253 7.26302 113.422 7.67969C113.598 8.08984 113.686 8.62044 113.686 9.27148C113.686 10.2025 113.676 11.0293 113.656 11.752C113.637 12.4681 113.627 13.2526 113.627 14.1055C113.627 14.3594 113.669 14.5612 113.754 14.7109C113.845 14.8607 113.982 14.9876 114.164 15.0918C114.262 15.1504 114.415 15.1829 114.623 15.1895C114.838 15.196 115.056 15.1992 115.277 15.1992V15.8242ZM111.869 10.668C111.316 10.8307 110.831 10.9902 110.414 11.1465C109.997 11.3027 109.61 11.498 109.252 11.7324C108.926 11.9538 108.669 12.2174 108.48 12.5234C108.292 12.8229 108.197 13.181 108.197 13.5977C108.197 14.138 108.337 14.5352 108.617 14.7891C108.904 15.043 109.265 15.1699 109.701 15.1699C110.163 15.1699 110.57 15.0592 110.922 14.8379C111.273 14.61 111.57 14.3431 111.811 14.0371L111.869 10.668ZM124.807 7.61133C124.807 7.94336 124.726 8.23958 124.563 8.5C124.401 8.75391 124.15 8.88086 123.811 8.88086C123.447 8.88086 123.167 8.78646 122.971 8.59766C122.783 8.40885 122.688 8.20052 122.688 7.97266C122.688 7.82943 122.698 7.69922 122.718 7.58203C122.744 7.46484 122.766 7.34766 122.786 7.23047C122.48 7.23047 122.122 7.35417 121.712 7.60156C121.302 7.84896 120.953 8.20052 120.667 8.65625V14.2617C120.667 14.4896 120.709 14.6751 120.794 14.8184C120.885 14.9616 121.025 15.069 121.214 15.1406C121.376 15.2057 121.585 15.2546 121.839 15.2871C122.099 15.3197 122.324 15.3424 122.512 15.3555V16H117.434V15.3555C117.584 15.3424 117.737 15.3294 117.893 15.3164C118.056 15.3034 118.196 15.2773 118.313 15.2383C118.496 15.1797 118.629 15.0788 118.714 14.9355C118.805 14.7858 118.85 14.5938 118.85 14.3594V8.41211C118.85 8.21029 118.802 8.01172 118.704 7.81641C118.613 7.62109 118.483 7.46484 118.313 7.34766C118.19 7.26953 118.043 7.21419 117.874 7.18164C117.705 7.14258 117.522 7.11654 117.327 7.10352V6.46875L120.53 6.25391L120.667 6.39062V7.74805H120.716C121.119 7.2207 121.568 6.82031 122.063 6.54688C122.558 6.27344 123.011 6.13672 123.421 6.13672C123.831 6.13672 124.163 6.27018 124.417 6.53711C124.677 6.80404 124.807 7.16211 124.807 7.61133ZM137.043 16H134.132C133.625 15.2643 133.081 14.4766 132.502 13.6367C131.922 12.7969 131.32 11.9798 130.695 11.1855L129.894 11.9375V14.2227C129.894 14.457 129.936 14.6523 130.021 14.8086C130.106 14.9583 130.242 15.069 130.431 15.1406C130.588 15.2057 130.737 15.2546 130.88 15.2871C131.024 15.3197 131.19 15.3424 131.379 15.3555V16H126.652V15.3555C126.802 15.3424 126.958 15.3294 127.121 15.3164C127.283 15.2969 127.42 15.2708 127.531 15.2383C127.713 15.1797 127.85 15.0788 127.941 14.9355C128.032 14.7858 128.078 14.5938 128.078 14.3594V3.16797C128.078 2.92708 128.026 2.70247 127.921 2.49414C127.824 2.2793 127.694 2.11654 127.531 2.00586C127.394 1.90169 127.179 1.83333 126.886 1.80078C126.6 1.76823 126.369 1.74544 126.193 1.73242V1.10742L129.757 0.882812L129.894 1.0293V11.2148C130.402 10.707 130.949 10.1634 131.535 9.58398C132.127 8.99805 132.625 8.47721 133.029 8.02148C133.081 7.96289 133.136 7.88802 133.195 7.79688C133.26 7.69922 133.293 7.62109 133.293 7.5625C133.293 7.38672 133.149 7.25651 132.863 7.17188C132.583 7.08724 132.313 7.02865 132.052 6.99609V6.37109H136.291V6.97656C135.744 7.13932 135.259 7.3444 134.836 7.5918C134.419 7.83268 134.1 8.05078 133.879 8.24609C133.722 8.3763 133.501 8.58789 133.214 8.88086C132.928 9.17383 132.528 9.55794 132.013 10.0332C132.547 10.6908 133.146 11.4785 133.81 12.3965C134.481 13.3145 134.969 13.9785 135.275 14.3887C135.561 14.7728 135.819 15.0234 136.046 15.1406C136.274 15.2578 136.606 15.3294 137.043 15.3555V16ZM142.246 15.6582C142.246 16.127 142.139 16.5697 141.924 16.9863C141.716 17.403 141.475 17.7611 141.202 18.0605C140.922 18.373 140.625 18.6497 140.313 18.8906C140 19.1315 139.714 19.3203 139.454 19.457L139.004 18.8027C139.317 18.6074 139.597 18.4121 139.844 18.2168C140.092 18.0215 140.293 17.8262 140.45 17.6309C140.645 17.403 140.811 17.1556 140.948 16.8887C141.084 16.6217 141.172 16.319 141.211 15.9805H140.713C140.277 15.9805 139.935 15.8665 139.688 15.6387C139.447 15.4108 139.327 15.1048 139.327 14.7207C139.327 14.4473 139.437 14.1836 139.659 13.9297C139.88 13.6693 140.183 13.5391 140.567 13.5391C141.127 13.5391 141.547 13.7279 141.827 14.1055C142.107 14.4766 142.246 14.9941 142.246 15.6582ZM162.752 11.8789L162.459 16H151.629V15.3066C151.785 15.2936 152.01 15.2708 152.303 15.2383C152.602 15.2057 152.811 15.1634 152.928 15.1113C153.123 15.0267 153.263 14.903 153.348 14.7402C153.439 14.5775 153.484 14.3691 153.484 14.1152V4.19336C153.484 3.97201 153.445 3.77669 153.367 3.60742C153.296 3.43815 153.149 3.30143 152.928 3.19727C152.778 3.11914 152.566 3.04427 152.293 2.97266C152.026 2.89453 151.805 2.84896 151.629 2.83594V2.14258H157.479V2.83594C157.296 2.84245 157.059 2.875 156.766 2.93359C156.479 2.99219 156.271 3.04427 156.141 3.08984C155.919 3.16797 155.766 3.30143 155.682 3.49023C155.604 3.67904 155.564 3.88086 155.564 4.0957V13.4023C155.564 13.832 155.584 14.1673 155.623 14.4082C155.669 14.6426 155.77 14.8249 155.926 14.9551C156.076 15.0723 156.297 15.1504 156.59 15.1895C156.889 15.222 157.306 15.2383 157.84 15.2383C158.081 15.2383 158.331 15.2318 158.592 15.2188C158.852 15.2057 159.1 15.1797 159.334 15.1406C159.562 15.1016 159.77 15.0495 159.959 14.9844C160.154 14.9128 160.298 14.8249 160.389 14.7207C160.656 14.4212 160.965 13.9688 161.316 13.3633C161.674 12.7513 161.922 12.2565 162.059 11.8789H162.752ZM174.03 11.0879C174.03 11.765 173.923 12.4323 173.708 13.0898C173.493 13.7409 173.187 14.2943 172.79 14.75C172.341 15.2708 171.82 15.6582 171.227 15.9121C170.635 16.166 169.971 16.293 169.235 16.293C168.623 16.293 168.04 16.179 167.487 15.9512C166.934 15.7168 166.442 15.3783 166.012 14.9355C165.589 14.4993 165.251 13.9688 164.997 13.3438C164.749 12.7122 164.626 12.0059 164.626 11.2246C164.626 9.7207 165.062 8.49023 165.934 7.5332C166.813 6.57617 167.962 6.09766 169.382 6.09766C170.729 6.09766 171.839 6.55339 172.712 7.46484C173.591 8.36979 174.03 9.57747 174.03 11.0879ZM172.009 11.1074C172.009 10.6191 171.96 10.1048 171.862 9.56445C171.764 9.01758 171.618 8.55534 171.423 8.17773C171.214 7.77409 170.941 7.45182 170.602 7.21094C170.264 6.96354 169.85 6.83984 169.362 6.83984C168.861 6.83984 168.431 6.96354 168.073 7.21094C167.721 7.45833 167.435 7.79688 167.214 8.22656C167.005 8.6237 166.859 9.07617 166.774 9.58398C166.69 10.0918 166.647 10.5833 166.647 11.0586C166.647 11.6836 166.696 12.263 166.794 12.7969C166.898 13.3242 167.061 13.7962 167.282 14.2129C167.503 14.6296 167.78 14.9583 168.112 15.1992C168.451 15.4336 168.867 15.5508 169.362 15.5508C170.176 15.5508 170.82 15.1569 171.296 14.3691C171.771 13.5814 172.009 12.4941 172.009 11.1074ZM187.261 16H182.545V15.3555C182.694 15.3424 182.857 15.3294 183.033 15.3164C183.215 15.3034 183.365 15.2773 183.482 15.2383C183.664 15.1797 183.798 15.0788 183.882 14.9355C183.974 14.7858 184.019 14.5938 184.019 14.3594V9.4082C184.019 8.72461 183.856 8.19727 183.531 7.82617C183.212 7.45508 182.821 7.26953 182.359 7.26953C182.014 7.26953 181.698 7.32487 181.412 7.43555C181.125 7.53971 180.871 7.66992 180.65 7.82617C180.435 7.97591 180.263 8.13867 180.132 8.31445C180.009 8.48372 179.918 8.62044 179.859 8.72461V14.2617C179.859 14.4831 179.905 14.6654 179.996 14.8086C180.087 14.9518 180.224 15.0625 180.406 15.1406C180.543 15.2057 180.689 15.2546 180.845 15.2871C181.008 15.3197 181.174 15.3424 181.343 15.3555V16H176.627V15.3555C176.776 15.3424 176.929 15.3294 177.086 15.3164C177.248 15.3034 177.388 15.2773 177.505 15.2383C177.688 15.1797 177.821 15.0788 177.906 14.9355C177.997 14.7858 178.043 14.5938 178.043 14.3594V8.41211C178.043 8.19076 177.994 7.98893 177.896 7.80664C177.805 7.61784 177.675 7.46484 177.505 7.34766C177.382 7.26953 177.235 7.21419 177.066 7.18164C176.897 7.14258 176.714 7.11654 176.519 7.10352V6.46875L179.722 6.25391L179.859 6.39062V7.74805H179.908C180.064 7.5918 180.259 7.40625 180.494 7.19141C180.728 6.97005 180.949 6.79102 181.158 6.6543C181.399 6.49805 181.685 6.36784 182.017 6.26367C182.349 6.15951 182.724 6.10742 183.14 6.10742C184.065 6.10742 184.748 6.39714 185.191 6.97656C185.64 7.54948 185.865 8.31445 185.865 9.27148V14.2812C185.865 14.5091 185.904 14.6947 185.982 14.8379C186.06 14.9746 186.194 15.082 186.382 15.1602C186.539 15.2253 186.672 15.2708 186.783 15.2969C186.9 15.3229 187.059 15.3424 187.261 15.3555V16ZM200.19 15.8242L196.83 16.0391L196.684 15.9023V15.0039L196.606 14.9844C196.267 15.362 195.847 15.6712 195.346 15.9121C194.851 16.153 194.34 16.2734 193.813 16.2734C193.266 16.2734 192.735 16.153 192.221 15.9121C191.713 15.6647 191.271 15.3197 190.893 14.877C190.509 14.4277 190.203 13.8874 189.975 13.2559C189.754 12.6243 189.643 11.9277 189.643 11.166C189.643 10.4694 189.763 9.80859 190.004 9.18359C190.245 8.55859 190.577 8.01172 191 7.54297C191.398 7.10677 191.883 6.75846 192.455 6.49805C193.035 6.23763 193.624 6.10742 194.223 6.10742C194.672 6.10742 195.112 6.16602 195.541 6.2832C195.978 6.39388 196.352 6.53711 196.664 6.71289V3.36328C196.664 3.08984 196.619 2.84245 196.528 2.62109C196.437 2.39323 196.31 2.2207 196.147 2.10352C195.965 1.97982 195.717 1.89193 195.405 1.83984C195.099 1.78125 194.767 1.73893 194.409 1.71289V1.10742L198.344 0.882812L198.491 1.0293V14.0176C198.491 14.2454 198.533 14.4408 198.618 14.6035C198.709 14.7598 198.839 14.8932 199.008 15.0039C199.132 15.082 199.311 15.1309 199.545 15.1504C199.78 15.1699 199.995 15.1829 200.19 15.1895V15.8242ZM196.664 14.1348V8.5C196.612 8.33073 196.528 8.14844 196.411 7.95312C196.293 7.75781 196.147 7.57878 195.971 7.41602C195.782 7.25326 195.561 7.11979 195.307 7.01562C195.053 6.90495 194.757 6.84961 194.418 6.84961C194.028 6.84961 193.666 6.95052 193.334 7.15234C193.009 7.35417 192.719 7.64388 192.465 8.02148C192.224 8.38607 192.032 8.85156 191.889 9.41797C191.752 9.97786 191.684 10.5996 191.684 11.2832C191.684 11.8301 191.736 12.3281 191.84 12.7773C191.944 13.2201 192.12 13.6335 192.368 14.0176C192.595 14.3822 192.885 14.6751 193.237 14.8965C193.595 15.1178 194.018 15.2285 194.506 15.2285C195.027 15.2285 195.457 15.1146 195.795 14.8867C196.14 14.6589 196.43 14.4082 196.664 14.1348ZM211.712 11.0879C211.712 11.765 211.605 12.4323 211.39 13.0898C211.175 13.7409 210.869 14.2943 210.472 14.75C210.023 15.2708 209.502 15.6582 208.909 15.9121C208.317 16.166 207.653 16.293 206.917 16.293C206.305 16.293 205.723 16.179 205.169 15.9512C204.616 15.7168 204.124 15.3783 203.695 14.9355C203.271 14.4993 202.933 13.9688 202.679 13.3438C202.432 12.7122 202.308 12.0059 202.308 11.2246C202.308 9.7207 202.744 8.49023 203.616 7.5332C204.495 6.57617 205.644 6.09766 207.064 6.09766C208.411 6.09766 209.521 6.55339 210.394 7.46484C211.273 8.36979 211.712 9.57747 211.712 11.0879ZM209.691 11.1074C209.691 10.6191 209.642 10.1048 209.544 9.56445C209.446 9.01758 209.3 8.55534 209.105 8.17773C208.896 7.77409 208.623 7.45182 208.284 7.21094C207.946 6.96354 207.532 6.83984 207.044 6.83984C206.543 6.83984 206.113 6.96354 205.755 7.21094C205.404 7.45833 205.117 7.79688 204.896 8.22656C204.687 8.6237 204.541 9.07617 204.456 9.58398C204.372 10.0918 204.329 10.5833 204.329 11.0586C204.329 11.6836 204.378 12.263 204.476 12.7969C204.58 13.3242 204.743 13.7962 204.964 14.2129C205.185 14.6296 205.462 14.9583 205.794 15.1992C206.133 15.4336 206.549 15.5508 207.044 15.5508C207.858 15.5508 208.502 15.1569 208.978 14.3691C209.453 13.5814 209.691 12.4941 209.691 11.1074ZM224.943 16H220.227V15.3555C220.376 15.3424 220.539 15.3294 220.715 15.3164C220.897 15.3034 221.047 15.2773 221.164 15.2383C221.346 15.1797 221.48 15.0788 221.564 14.9355C221.656 14.7858 221.701 14.5938 221.701 14.3594V9.4082C221.701 8.72461 221.538 8.19727 221.213 7.82617C220.894 7.45508 220.503 7.26953 220.041 7.26953C219.696 7.26953 219.38 7.32487 219.094 7.43555C218.807 7.53971 218.553 7.66992 218.332 7.82617C218.117 7.97591 217.945 8.13867 217.814 8.31445C217.691 8.48372 217.6 8.62044 217.541 8.72461V14.2617C217.541 14.4831 217.587 14.6654 217.678 14.8086C217.769 14.9518 217.906 15.0625 218.088 15.1406C218.225 15.2057 218.371 15.2546 218.527 15.2871C218.69 15.3197 218.856 15.3424 219.025 15.3555V16H214.309V15.3555C214.458 15.3424 214.611 15.3294 214.768 15.3164C214.93 15.3034 215.07 15.2773 215.188 15.2383C215.37 15.1797 215.503 15.0788 215.588 14.9355C215.679 14.7858 215.725 14.5938 215.725 14.3594V8.41211C215.725 8.19076 215.676 7.98893 215.578 7.80664C215.487 7.61784 215.357 7.46484 215.188 7.34766C215.064 7.26953 214.917 7.21419 214.748 7.18164C214.579 7.14258 214.396 7.11654 214.201 7.10352V6.46875L217.404 6.25391L217.541 6.39062V7.74805H217.59C217.746 7.5918 217.941 7.40625 218.176 7.19141C218.41 6.97005 218.632 6.79102 218.84 6.6543C219.081 6.49805 219.367 6.36784 219.699 6.26367C220.031 6.15951 220.406 6.10742 220.822 6.10742C221.747 6.10742 222.43 6.39714 222.873 6.97656C223.322 7.54948 223.547 8.31445 223.547 9.27148V14.2812C223.547 14.5091 223.586 14.6947 223.664 14.8379C223.742 14.9746 223.876 15.082 224.064 15.1602C224.221 15.2253 224.354 15.2708 224.465 15.2969C224.582 15.3229 224.742 15.3424 224.943 15.3555V16Z" fill="#F1CDB3"/>
</svg>
