<svg width="190" height="20" viewBox="0 0 190 20" fill="none" xmlns="http://www.w3.org/2000/svg">
<path d="M9.25781 13.7344C8.85417 14.5026 8.3138 15.1146 7.63672 15.5703C6.95964 16.026 6.18164 16.2539 5.30273 16.2539C4.52799 16.2539 3.84766 16.1172 3.26172 15.8438C2.68229 15.5703 2.20378 15.1992 1.82617 14.7305C1.44857 14.2617 1.16536 13.7148 0.976562 13.0898C0.794271 12.4648 0.703125 11.804 0.703125 11.1074C0.703125 10.4824 0.800781 9.87044 0.996094 9.27148C1.19792 8.66602 1.49089 8.1224 1.875 7.64062C2.24609 7.17839 2.70508 6.80729 3.25195 6.52734C3.80534 6.24089 4.42383 6.09766 5.10742 6.09766C5.81055 6.09766 6.41276 6.20833 6.91406 6.42969C7.41536 6.65104 7.82227 6.95378 8.13477 7.33789C8.43424 7.70247 8.6556 8.13216 8.79883 8.62695C8.94857 9.12174 9.02344 9.65885 9.02344 10.2383V10.8828H2.64648C2.64648 11.5143 2.70508 12.0872 2.82227 12.6016C2.94596 13.1159 3.13802 13.5684 3.39844 13.959C3.65234 14.3366 3.98438 14.6361 4.39453 14.8574C4.80469 15.0723 5.29297 15.1797 5.85938 15.1797C6.4388 15.1797 6.93685 15.0462 7.35352 14.7793C7.77669 14.5059 8.18359 14.0176 8.57422 13.3145L9.25781 13.7344ZM7.09961 10.0625C7.09961 9.69792 7.06706 9.30729 7.00195 8.89062C6.94336 8.47396 6.8457 8.12565 6.70898 7.8457C6.55924 7.54622 6.35417 7.30208 6.09375 7.11328C5.83333 6.92448 5.49805 6.83008 5.08789 6.83008C4.4043 6.83008 3.83464 7.11654 3.37891 7.68945C2.92969 8.25586 2.68555 9.04688 2.64648 10.0625H7.09961ZM28.0652 16H23.368V15.3555C23.5177 15.3424 23.6674 15.3294 23.8172 15.3164C23.9734 15.3034 24.1102 15.2773 24.2273 15.2383C24.4096 15.1797 24.5431 15.0788 24.6277 14.9355C24.7189 14.7858 24.7645 14.5938 24.7645 14.3594V9.38867C24.7645 8.71159 24.6082 8.19076 24.2957 7.82617C23.9897 7.45508 23.6056 7.26953 23.1434 7.26953C22.8243 7.26953 22.5249 7.31836 22.2449 7.41602C21.965 7.51367 21.7078 7.65039 21.4734 7.82617C21.2846 7.9694 21.1251 8.12565 20.9949 8.29492C20.8712 8.45768 20.7768 8.5944 20.7117 8.70508V14.2617C20.7117 14.4896 20.7508 14.6784 20.8289 14.8281C20.907 14.9714 21.0405 15.082 21.2293 15.1602C21.379 15.2188 21.5125 15.2643 21.6297 15.2969C21.7534 15.3229 21.9129 15.3424 22.1082 15.3555V16H17.5086V15.3555C17.6583 15.3424 17.8016 15.3294 17.9383 15.3164C18.0815 15.3034 18.2117 15.2773 18.3289 15.2383C18.5112 15.1797 18.6447 15.0788 18.7293 14.9355C18.8204 14.7858 18.866 14.5938 18.866 14.3594V9.38867C18.866 8.71159 18.7098 8.19076 18.3973 7.82617C18.0913 7.45508 17.7072 7.26953 17.2449 7.26953C16.9259 7.26953 16.6264 7.32161 16.3465 7.42578C16.0665 7.52344 15.8094 7.66016 15.575 7.83594C15.3862 7.97917 15.2267 8.14193 15.0965 8.32422C14.9663 8.5 14.8686 8.63346 14.8035 8.72461V14.2422C14.8035 14.4635 14.8491 14.6491 14.9402 14.7988C15.0314 14.9486 15.1681 15.0625 15.3504 15.1406C15.4871 15.2057 15.6271 15.2546 15.7703 15.2871C15.9135 15.3197 16.073 15.3424 16.2488 15.3555V16H11.5711V15.3555C11.7208 15.3424 11.8738 15.3294 12.0301 15.3164C12.1928 15.3034 12.3328 15.2773 12.45 15.2383C12.6323 15.1797 12.7658 15.0788 12.8504 14.9355C12.9415 14.7858 12.9871 14.5938 12.9871 14.3594V8.37305C12.9871 8.16471 12.9383 7.97917 12.8406 7.81641C12.7495 7.64714 12.6193 7.50391 12.45 7.38672C12.3263 7.30859 12.1733 7.24674 11.991 7.20117C11.8087 7.14909 11.6199 7.11654 11.4246 7.10352V6.46875L14.6473 6.25391L14.784 6.39062V7.76758H14.8523C15.0151 7.60482 15.2137 7.41276 15.448 7.19141C15.6824 6.97005 15.9005 6.79102 16.1023 6.6543C16.3302 6.49805 16.6134 6.36784 16.952 6.26367C17.297 6.15951 17.6681 6.10742 18.0652 6.10742C18.6902 6.10742 19.2273 6.27669 19.6766 6.61523C20.1258 6.94727 20.448 7.35091 20.6434 7.82617C20.8777 7.59831 21.0828 7.39974 21.2586 7.23047C21.4409 7.05469 21.6785 6.86914 21.9715 6.67383C22.2189 6.50456 22.5086 6.36784 22.8406 6.26367C23.1792 6.15951 23.5535 6.10742 23.9637 6.10742C24.7775 6.10742 25.422 6.37435 25.8973 6.9082C26.3725 7.44206 26.6102 8.26237 26.6102 9.36914V14.2617C26.6102 14.4896 26.6492 14.6784 26.7273 14.8281C26.8055 14.9714 26.9389 15.082 27.1277 15.1602C27.2775 15.2188 27.424 15.2643 27.5672 15.2969C27.7169 15.3229 27.8829 15.3424 28.0652 15.3555V16ZM39.5094 15.8242C39.2034 15.9349 38.9332 16.0228 38.6988 16.0879C38.471 16.1595 38.2105 16.1953 37.9176 16.1953C37.4098 16.1953 37.0029 16.0781 36.6969 15.8438C36.3974 15.6029 36.2053 15.2546 36.1207 14.7988H36.0621C35.6389 15.2676 35.1832 15.6257 34.6949 15.873C34.2132 16.1204 33.6305 16.2441 32.9469 16.2441C32.2242 16.2441 31.6285 16.0228 31.1598 15.5801C30.6975 15.1374 30.4664 14.5579 30.4664 13.8418C30.4664 13.4707 30.5185 13.1387 30.6227 12.8457C30.7268 12.5527 30.8831 12.2891 31.0914 12.0547C31.2542 11.8594 31.469 11.6868 31.7359 11.5371C32.0029 11.3809 32.2535 11.2572 32.4879 11.166C32.7809 11.0553 33.3733 10.8503 34.2652 10.5508C35.1637 10.2513 35.7691 10.0169 36.0816 9.84766V8.88086C36.0816 8.79622 36.0621 8.63346 36.023 8.39258C35.9905 8.15169 35.9156 7.92383 35.7984 7.70898C35.6682 7.4681 35.4827 7.25977 35.2418 7.08398C35.0074 6.90169 34.6721 6.81055 34.2359 6.81055C33.9365 6.81055 33.6565 6.86263 33.3961 6.9668C33.1422 7.06445 32.9632 7.16862 32.859 7.2793C32.859 7.40951 32.8883 7.60156 32.9469 7.85547C33.012 8.10938 33.0445 8.34375 33.0445 8.55859C33.0445 8.78646 32.9404 8.99479 32.732 9.18359C32.5302 9.3724 32.247 9.4668 31.8824 9.4668C31.5569 9.4668 31.316 9.35286 31.1598 9.125C31.01 8.89062 30.9352 8.63021 30.9352 8.34375C30.9352 8.04427 31.0393 7.75781 31.2477 7.48438C31.4625 7.21094 31.7392 6.9668 32.0777 6.75195C32.3707 6.56966 32.7255 6.41667 33.1422 6.29297C33.5589 6.16276 33.9658 6.09766 34.3629 6.09766C34.9098 6.09766 35.385 6.13672 35.7887 6.21484C36.1988 6.28646 36.5699 6.44596 36.902 6.69336C37.234 6.93424 37.4846 7.26302 37.6539 7.67969C37.8297 8.08984 37.9176 8.62044 37.9176 9.27148C37.9176 10.2025 37.9078 11.0293 37.8883 11.752C37.8687 12.4681 37.859 13.2526 37.859 14.1055C37.859 14.3594 37.9013 14.5612 37.9859 14.7109C38.0771 14.8607 38.2138 14.9876 38.3961 15.0918C38.4937 15.1504 38.6467 15.1829 38.8551 15.1895C39.0699 15.196 39.288 15.1992 39.5094 15.1992V15.8242ZM36.1012 10.668C35.5478 10.8307 35.0628 10.9902 34.6461 11.1465C34.2294 11.3027 33.8421 11.498 33.484 11.7324C33.1585 11.9538 32.9013 12.2174 32.7125 12.5234C32.5237 12.8229 32.4293 13.181 32.4293 13.5977C32.4293 14.138 32.5693 14.5352 32.8492 14.7891C33.1357 15.043 33.497 15.1699 33.9332 15.1699C34.3954 15.1699 34.8023 15.0592 35.1539 14.8379C35.5055 14.61 35.8017 14.3431 36.0426 14.0371L36.1012 10.668ZM46.3441 16H41.6859V15.3555C41.8357 15.3424 41.9887 15.3294 42.1449 15.3164C42.3077 15.3034 42.4477 15.2773 42.5648 15.2383C42.7471 15.1797 42.8806 15.0788 42.9652 14.9355C43.0564 14.7858 43.102 14.5938 43.102 14.3594V8.41211C43.102 8.20378 43.0531 8.01497 42.9555 7.8457C42.8643 7.66992 42.7341 7.52344 42.5648 7.40625C42.4411 7.32812 42.2621 7.26302 42.0277 7.21094C41.7934 7.15234 41.5785 7.11654 41.3832 7.10352V6.46875L44.7816 6.25391L44.9184 6.39062V14.2422C44.9184 14.4701 44.9607 14.6589 45.0453 14.8086C45.1365 14.9583 45.2764 15.069 45.4652 15.1406C45.6085 15.1992 45.7484 15.248 45.8852 15.2871C46.0219 15.3197 46.1749 15.3424 46.3441 15.3555V16ZM45.1137 2.45508C45.1137 2.82617 44.99 3.15169 44.7426 3.43164C44.5017 3.70508 44.2022 3.8418 43.8441 3.8418C43.5121 3.8418 43.2224 3.71159 42.975 3.45117C42.7341 3.18424 42.6137 2.88151 42.6137 2.54297C42.6137 2.1849 42.7341 1.8724 42.975 1.60547C43.2224 1.33854 43.5121 1.20508 43.8441 1.20508C44.2152 1.20508 44.518 1.33203 44.7523 1.58594C44.9932 1.83333 45.1137 2.12305 45.1137 2.45508ZM53.2375 16H48.5402V15.3555C48.69 15.3424 48.8495 15.3294 49.0187 15.3164C49.188 15.2969 49.328 15.2708 49.4387 15.2383C49.621 15.1797 49.7577 15.0788 49.8488 14.9355C49.94 14.7858 49.9855 14.5938 49.9855 14.3594V3.20703C49.9855 2.97266 49.9335 2.75456 49.8293 2.55273C49.7316 2.3444 49.6014 2.18164 49.4387 2.06445C49.3215 1.98633 49.1066 1.91471 48.7941 1.84961C48.4816 1.78451 48.231 1.74544 48.0422 1.73242V1.10742L51.6652 0.882812L51.802 1.0293V14.2422C51.802 14.4701 51.8443 14.6589 51.9289 14.8086C52.0135 14.9518 52.1503 15.0625 52.3391 15.1406C52.4823 15.2057 52.6223 15.2546 52.759 15.2871C52.9022 15.3197 53.0617 15.3424 53.2375 15.3555V16ZM69.8867 17.1621C69.2357 17.7285 68.4609 18.1842 67.5625 18.5293C66.6706 18.8809 65.6745 19.0566 64.5742 19.0566C63.5911 19.0566 62.6243 18.8971 61.6738 18.5781C60.7233 18.2656 59.8672 17.7871 59.1055 17.1426C58.3503 16.498 57.7415 15.6973 57.2793 14.7402C56.8171 13.7767 56.5859 12.6439 56.5859 11.3418C56.5859 10.2285 56.7943 9.14779 57.2109 8.09961C57.6276 7.05143 58.2233 6.11719 58.998 5.29688C59.7467 4.49609 60.6712 3.85156 61.7715 3.36328C62.8783 2.86849 64.0827 2.62109 65.3848 2.62109C66.5111 2.62109 67.4876 2.80339 68.3145 3.16797C69.1413 3.52604 69.8184 4.0013 70.3457 4.59375C70.873 5.17969 71.2669 5.85352 71.5273 6.61523C71.7943 7.37695 71.9277 8.17122 71.9277 8.99805C71.9277 10.5866 71.4915 11.931 70.6191 13.0312C69.7467 14.125 68.6432 14.6719 67.3086 14.6719C66.7552 14.6719 66.2865 14.5352 65.9023 14.2617C65.5182 13.9818 65.3034 13.5911 65.2578 13.0898L65.1895 13.0703C64.877 13.5456 64.5189 13.9264 64.1152 14.2129C63.7181 14.4928 63.3145 14.6328 62.9043 14.6328C62.6374 14.6328 62.3639 14.5905 62.084 14.5059C61.8105 14.4147 61.5664 14.2682 61.3516 14.0664C61.1367 13.8516 60.9642 13.5716 60.834 13.2266C60.7103 12.8815 60.6484 12.4551 60.6484 11.9473C60.6484 11.472 60.7559 10.9414 60.9707 10.3555C61.1921 9.76302 61.4883 9.19987 61.8594 8.66602C62.2305 8.12565 62.709 7.6569 63.2949 7.25977C63.8874 6.86263 64.5254 6.66406 65.209 6.66406C65.5736 6.66406 65.8958 6.76823 66.1758 6.97656C66.4622 7.17839 66.638 7.47786 66.7031 7.875H66.7617L67.1816 6.78125H68.6367L66.791 12.0352C66.7324 12.1979 66.6836 12.3867 66.6445 12.6016C66.612 12.8099 66.5957 12.9759 66.5957 13.0996C66.5957 13.4316 66.6803 13.6758 66.8496 13.832C67.0189 13.9818 67.237 14.0566 67.5039 14.0566C68.513 14.0566 69.3561 13.5846 70.0332 12.6406C70.7103 11.6901 71.0488 10.4401 71.0488 8.89062C71.0488 8.1224 70.9284 7.41276 70.6875 6.76172C70.4466 6.10417 70.0788 5.52474 69.584 5.02344C69.1087 4.52865 68.5098 4.13802 67.7871 3.85156C67.0645 3.5651 66.2376 3.42188 65.3066 3.42188C64.4212 3.42188 63.5586 3.5944 62.7188 3.93945C61.8789 4.28451 61.1139 4.79232 60.4238 5.46289C59.7533 6.11393 59.2096 6.92448 58.793 7.89453C58.3763 8.86458 58.168 9.96159 58.168 11.1855C58.168 12.3639 58.3307 13.4023 58.6562 14.3008C58.9818 15.1927 59.4408 15.9414 60.0332 16.5469C60.6126 17.1328 61.2962 17.5723 62.084 17.8652C62.8717 18.1582 63.7246 18.3047 64.6426 18.3047C65.6777 18.3047 66.599 18.1647 67.4062 17.8848C68.2135 17.6048 68.9395 17.1979 69.584 16.6641L69.8867 17.1621ZM66.4883 8.75391C66.3971 8.22656 66.2507 7.84245 66.0488 7.60156C65.847 7.36068 65.5508 7.24023 65.1602 7.24023C64.7435 7.24023 64.3594 7.40951 64.0078 7.74805C63.6628 8.08008 63.3698 8.47721 63.1289 8.93945C62.875 9.42122 62.6764 9.94857 62.5332 10.5215C62.3965 11.0879 62.3281 11.612 62.3281 12.0938C62.3281 12.6471 62.3932 13.0736 62.5234 13.373C62.6602 13.666 62.8815 13.8125 63.1875 13.8125C63.6302 13.8125 64.0273 13.6595 64.3789 13.3535C64.7305 13.0475 65.0592 12.6146 65.3652 12.0547L66.4883 8.75391ZM81.7801 11.2832C82.047 11.5176 82.2521 11.7878 82.3953 12.0938C82.5385 12.3997 82.6102 12.7741 82.6102 13.2168C82.6102 14.1087 82.2749 14.8379 81.6043 15.4043C80.9402 15.9707 80.0776 16.2539 79.0164 16.2539C78.4565 16.2539 77.9389 16.153 77.4637 15.9512C76.9949 15.7493 76.6596 15.5638 76.4578 15.3945L76.2625 16.0293H75.5301L75.4324 12.6797H76.1062C76.1583 12.9336 76.269 13.2298 76.4383 13.5684C76.6075 13.9069 76.8126 14.2129 77.0535 14.4863C77.3074 14.7728 77.6102 15.0137 77.9617 15.209C78.3198 15.4043 78.7202 15.502 79.1629 15.502C79.7879 15.502 80.2697 15.362 80.6082 15.082C80.9467 14.7956 81.116 14.3887 81.116 13.8613C81.116 13.5879 81.0607 13.3535 80.95 13.1582C80.8458 12.9564 80.6896 12.7806 80.4812 12.6309C80.2664 12.4811 80.0027 12.3477 79.6902 12.2305C79.3777 12.1068 79.0294 11.9863 78.6453 11.8691C78.3393 11.778 77.9975 11.6543 77.6199 11.498C77.2488 11.3353 76.9298 11.1465 76.6629 10.9316C76.3764 10.7038 76.1421 10.4238 75.9598 10.0918C75.7775 9.75977 75.6863 9.36914 75.6863 8.91992C75.6863 8.13216 75.9793 7.46484 76.5652 6.91797C77.1512 6.37109 77.9357 6.09766 78.9187 6.09766C79.2964 6.09766 79.6805 6.14648 80.0711 6.24414C80.4682 6.3418 80.7905 6.45898 81.0379 6.5957L81.2625 6.08789H81.9656L82.1121 9.18359H81.4383C81.3016 8.49349 81.0053 7.93359 80.5496 7.50391C80.1004 7.06771 79.5503 6.84961 78.8992 6.84961C78.3654 6.84961 77.9454 6.98307 77.6395 7.25C77.3335 7.51693 77.1805 7.83919 77.1805 8.2168C77.1805 8.50977 77.2293 8.75391 77.327 8.94922C77.4311 9.14453 77.5841 9.31055 77.7859 9.44727C77.9812 9.57747 78.2254 9.70117 78.5184 9.81836C78.8178 9.92904 79.1857 10.056 79.6219 10.1992C80.0516 10.3359 80.4552 10.4954 80.8328 10.6777C81.2169 10.86 81.5327 11.0618 81.7801 11.2832ZM95.734 16H91.0074V15.3555C91.1572 15.3424 91.3232 15.3294 91.5055 15.3164C91.6878 15.3034 91.8375 15.2773 91.9547 15.2383C92.137 15.1797 92.2704 15.0788 92.3551 14.9355C92.4462 14.7858 92.4918 14.5938 92.4918 14.3594V9.4082C92.4918 8.72461 92.329 8.19727 92.0035 7.82617C91.6845 7.45508 91.2939 7.26953 90.8316 7.26953C90.4931 7.26953 90.1773 7.32487 89.8844 7.43555C89.5979 7.53971 89.3408 7.66992 89.1129 7.82617C88.8915 7.98893 88.7223 8.15169 88.6051 8.31445C88.4879 8.47721 88.3967 8.61393 88.3316 8.72461V14.2617C88.3316 14.4831 88.374 14.6654 88.4586 14.8086C88.5497 14.9518 88.6865 15.0625 88.8688 15.1406C89.012 15.2057 89.1585 15.2546 89.3082 15.2871C89.4645 15.3197 89.6337 15.3424 89.816 15.3555V16H85.0895V15.3555C85.2392 15.3424 85.3954 15.3294 85.5582 15.3164C85.721 15.2969 85.8577 15.2708 85.9684 15.2383C86.1507 15.1797 86.2874 15.0788 86.3785 14.9355C86.4697 14.7858 86.5152 14.5938 86.5152 14.3594V3.14844C86.5152 2.92708 86.4632 2.70573 86.359 2.48438C86.2613 2.26302 86.1311 2.09701 85.9684 1.98633C85.8512 1.90169 85.6428 1.8431 85.3434 1.81055C85.0504 1.77148 84.8128 1.74544 84.6305 1.73242V1.10742L88.1949 0.882812L88.3316 1.0293V7.74805H88.3707C88.5855 7.5332 88.7809 7.3444 88.9566 7.18164C89.1324 7.01237 89.3635 6.83659 89.65 6.6543C89.8974 6.49805 90.1871 6.36784 90.5191 6.26367C90.8577 6.15951 91.2353 6.10742 91.652 6.10742C92.5113 6.10742 93.1721 6.38086 93.6344 6.92773C94.0966 7.4681 94.3277 8.24935 94.3277 9.27148V14.2812C94.3277 14.5091 94.3668 14.6947 94.4449 14.8379C94.5296 14.9746 94.6663 15.082 94.8551 15.1602C95.0048 15.2188 95.1383 15.2643 95.2555 15.2969C95.3792 15.3229 95.5387 15.3424 95.734 15.3555V16ZM106.67 13.7344C106.267 14.5026 105.726 15.1146 105.049 15.5703C104.372 16.026 103.594 16.2539 102.715 16.2539C101.94 16.2539 101.26 16.1172 100.674 15.8438C100.095 15.5703 99.6163 15.1992 99.2387 14.7305C98.8611 14.2617 98.5779 13.7148 98.3891 13.0898C98.2068 12.4648 98.1156 11.804 98.1156 11.1074C98.1156 10.4824 98.2133 9.87044 98.4086 9.27148C98.6104 8.66602 98.9034 8.1224 99.2875 7.64062C99.6586 7.17839 100.118 6.80729 100.664 6.52734C101.218 6.24089 101.836 6.09766 102.52 6.09766C103.223 6.09766 103.825 6.20833 104.327 6.42969C104.828 6.65104 105.235 6.95378 105.547 7.33789C105.847 7.70247 106.068 8.13216 106.211 8.62695C106.361 9.12174 106.436 9.65885 106.436 10.2383V10.8828H100.059C100.059 11.5143 100.118 12.0872 100.235 12.6016C100.358 13.1159 100.551 13.5684 100.811 13.959C101.065 14.3366 101.397 14.6361 101.807 14.8574C102.217 15.0723 102.705 15.1797 103.272 15.1797C103.851 15.1797 104.349 15.0462 104.766 14.7793C105.189 14.5059 105.596 14.0176 105.987 13.3145L106.67 13.7344ZM104.512 10.0625C104.512 9.69792 104.48 9.30729 104.414 8.89062C104.356 8.47396 104.258 8.12565 104.121 7.8457C103.972 7.54622 103.767 7.30208 103.506 7.11328C103.246 6.92448 102.911 6.83008 102.5 6.83008C101.817 6.83008 101.247 7.11654 100.791 7.68945C100.342 8.25586 100.098 9.04688 100.059 10.0625H104.512ZM113.495 16H108.798V15.3555C108.948 15.3424 109.107 15.3294 109.277 15.3164C109.446 15.2969 109.586 15.2708 109.696 15.2383C109.879 15.1797 110.015 15.0788 110.107 14.9355C110.198 14.7858 110.243 14.5938 110.243 14.3594V3.20703C110.243 2.97266 110.191 2.75456 110.087 2.55273C109.989 2.3444 109.859 2.18164 109.696 2.06445C109.579 1.98633 109.364 1.91471 109.052 1.84961C108.739 1.78451 108.489 1.74544 108.3 1.73242V1.10742L111.923 0.882812L112.06 1.0293V14.2422C112.06 14.4701 112.102 14.6589 112.187 14.8086C112.271 14.9518 112.408 15.0625 112.597 15.1406C112.74 15.2057 112.88 15.2546 113.017 15.2871C113.16 15.3197 113.32 15.3424 113.495 15.3555V16ZM121.854 15.5801C121.43 15.7559 121.03 15.9023 120.652 16.0195C120.275 16.1432 119.812 16.2051 119.266 16.2051C118.458 16.2051 117.889 16.0033 117.557 15.5996C117.231 15.1895 117.068 14.6133 117.068 13.8711V7.34766H115.33V6.41016H117.107V3.41211H118.885V6.41016H121.648V7.34766H118.904V12.7285C118.904 13.1322 118.917 13.4707 118.943 13.7441C118.976 14.0111 119.048 14.2454 119.158 14.4473C119.262 14.6361 119.419 14.7793 119.627 14.877C119.835 14.9746 120.115 15.0234 120.467 15.0234C120.63 15.0234 120.867 15.0104 121.18 14.9844C121.499 14.9518 121.723 14.9128 121.854 14.8672V15.5801ZM132.575 13.7344C132.171 14.5026 131.631 15.1146 130.954 15.5703C130.277 16.026 129.499 16.2539 128.62 16.2539C127.845 16.2539 127.165 16.1172 126.579 15.8438C125.999 15.5703 125.521 15.1992 125.143 14.7305C124.766 14.2617 124.483 13.7148 124.294 13.0898C124.111 12.4648 124.02 11.804 124.02 11.1074C124.02 10.4824 124.118 9.87044 124.313 9.27148C124.515 8.66602 124.808 8.1224 125.192 7.64062C125.563 7.17839 126.022 6.80729 126.569 6.52734C127.123 6.24089 127.741 6.09766 128.425 6.09766C129.128 6.09766 129.73 6.20833 130.231 6.42969C130.733 6.65104 131.139 6.95378 131.452 7.33789C131.751 7.70247 131.973 8.13216 132.116 8.62695C132.266 9.12174 132.341 9.65885 132.341 10.2383V10.8828H125.964C125.964 11.5143 126.022 12.0872 126.139 12.6016C126.263 13.1159 126.455 13.5684 126.716 13.959C126.97 14.3366 127.302 14.6361 127.712 14.8574C128.122 15.0723 128.61 15.1797 129.177 15.1797C129.756 15.1797 130.254 15.0462 130.671 14.7793C131.094 14.5059 131.501 14.0176 131.891 13.3145L132.575 13.7344ZM130.417 10.0625C130.417 9.69792 130.384 9.30729 130.319 8.89062C130.261 8.47396 130.163 8.12565 130.026 7.8457C129.876 7.54622 129.671 7.30208 129.411 7.11328C129.151 6.92448 128.815 6.83008 128.405 6.83008C127.721 6.83008 127.152 7.11654 126.696 7.68945C126.247 8.25586 126.003 9.04688 125.964 10.0625H130.417ZM142.261 7.61133C142.261 7.94336 142.18 8.23958 142.017 8.5C141.854 8.75391 141.604 8.88086 141.265 8.88086C140.901 8.88086 140.621 8.78646 140.425 8.59766C140.237 8.40885 140.142 8.20052 140.142 7.97266C140.142 7.82943 140.152 7.69922 140.171 7.58203C140.198 7.46484 140.22 7.34766 140.24 7.23047C139.934 7.23047 139.576 7.35417 139.166 7.60156C138.755 7.84896 138.407 8.20052 138.121 8.65625V14.2617C138.121 14.4896 138.163 14.6751 138.248 14.8184C138.339 14.9616 138.479 15.069 138.668 15.1406C138.83 15.2057 139.039 15.2546 139.293 15.2871C139.553 15.3197 139.778 15.3424 139.966 15.3555V16H134.888V15.3555C135.038 15.3424 135.191 15.3294 135.347 15.3164C135.51 15.3034 135.65 15.2773 135.767 15.2383C135.949 15.1797 136.083 15.0788 136.168 14.9355C136.259 14.7858 136.304 14.5938 136.304 14.3594V8.41211C136.304 8.21029 136.255 8.01172 136.158 7.81641C136.067 7.62109 135.936 7.46484 135.767 7.34766C135.643 7.26953 135.497 7.21419 135.328 7.18164C135.158 7.14258 134.976 7.11654 134.781 7.10352V6.46875L137.984 6.25391L138.121 6.39062V7.74805H138.17C138.573 7.2207 139.022 6.82031 139.517 6.54688C140.012 6.27344 140.464 6.13672 140.875 6.13672C141.285 6.13672 141.617 6.27018 141.871 6.53711C142.131 6.80404 142.261 7.16211 142.261 7.61133ZM147.641 14.877C147.641 15.2415 147.508 15.554 147.241 15.8145C146.98 16.0684 146.668 16.1953 146.303 16.1953C145.939 16.1953 145.623 16.0684 145.356 15.8145C145.095 15.554 144.965 15.2415 144.965 14.877C144.965 14.5124 145.095 14.1999 145.356 13.9395C145.623 13.6725 145.939 13.5391 146.303 13.5391C146.668 13.5391 146.98 13.6725 147.241 13.9395C147.508 14.1999 147.641 14.5124 147.641 14.877ZM155.335 16.2539C153.942 16.2539 152.851 15.7917 152.064 14.8672C151.276 13.9427 150.882 12.7025 150.882 11.1465C150.882 10.4694 150.986 9.83789 151.195 9.25195C151.409 8.65951 151.719 8.1224 152.122 7.64062C152.506 7.17839 152.988 6.80729 153.568 6.52734C154.147 6.24089 154.779 6.09766 155.462 6.09766C156.406 6.09766 157.174 6.32552 157.767 6.78125C158.359 7.23047 158.655 7.8457 158.655 8.62695C158.655 8.95247 158.577 9.24219 158.421 9.49609C158.265 9.74349 158.008 9.86719 157.65 9.86719C157.265 9.86719 156.966 9.76953 156.751 9.57422C156.543 9.37891 156.439 9.16081 156.439 8.91992C156.439 8.62695 156.478 8.32747 156.556 8.02148C156.634 7.70898 156.68 7.48112 156.693 7.33789C156.575 7.13607 156.4 7.0026 156.165 6.9375C155.937 6.86589 155.69 6.83008 155.423 6.83008C155.111 6.83008 154.811 6.89844 154.525 7.03516C154.245 7.16536 153.971 7.40951 153.704 7.76758C153.463 8.0931 153.268 8.53255 153.118 9.08594C152.969 9.63932 152.894 10.3001 152.894 11.0684C152.894 12.2793 153.161 13.2689 153.695 14.0371C154.235 14.7988 154.941 15.1797 155.814 15.1797C156.445 15.1797 156.973 15.0267 157.396 14.7207C157.825 14.4147 158.223 13.9557 158.587 13.3438L159.212 13.7539C158.782 14.5221 158.216 15.1309 157.513 15.5801C156.81 16.0293 156.084 16.2539 155.335 16.2539ZM170.549 11.0879C170.549 11.765 170.441 12.4323 170.227 13.0898C170.012 13.7409 169.706 14.2943 169.309 14.75C168.859 15.2708 168.339 15.6582 167.746 15.9121C167.154 16.166 166.49 16.293 165.754 16.293C165.142 16.293 164.559 16.179 164.006 15.9512C163.452 15.7168 162.961 15.3783 162.531 14.9355C162.108 14.4993 161.77 13.9688 161.516 13.3438C161.268 12.7122 161.145 12.0059 161.145 11.2246C161.145 9.7207 161.581 8.49023 162.453 7.5332C163.332 6.57617 164.481 6.09766 165.9 6.09766C167.248 6.09766 168.358 6.55339 169.23 7.46484C170.109 8.36979 170.549 9.57747 170.549 11.0879ZM168.527 11.1074C168.527 10.6191 168.479 10.1048 168.381 9.56445C168.283 9.01758 168.137 8.55534 167.941 8.17773C167.733 7.77409 167.46 7.45182 167.121 7.21094C166.783 6.96354 166.369 6.83984 165.881 6.83984C165.38 6.83984 164.95 6.96354 164.592 7.21094C164.24 7.45833 163.954 7.79688 163.732 8.22656C163.524 8.6237 163.378 9.07617 163.293 9.58398C163.208 10.0918 163.166 10.5833 163.166 11.0586C163.166 11.6836 163.215 12.263 163.312 12.7969C163.417 13.3242 163.579 13.7962 163.801 14.2129C164.022 14.6296 164.299 14.9583 164.631 15.1992C164.969 15.4336 165.386 15.5508 165.881 15.5508C166.695 15.5508 167.339 15.1569 167.814 14.3691C168.29 13.5814 168.527 12.4941 168.527 11.1074ZM189.639 16H184.942V15.3555C185.092 15.3424 185.242 15.3294 185.391 15.3164C185.548 15.3034 185.684 15.2773 185.802 15.2383C185.984 15.1797 186.117 15.0788 186.202 14.9355C186.293 14.7858 186.339 14.5938 186.339 14.3594V9.38867C186.339 8.71159 186.182 8.19076 185.87 7.82617C185.564 7.45508 185.18 7.26953 184.718 7.26953C184.399 7.26953 184.099 7.31836 183.819 7.41602C183.539 7.51367 183.282 7.65039 183.048 7.82617C182.859 7.9694 182.699 8.12565 182.569 8.29492C182.445 8.45768 182.351 8.5944 182.286 8.70508V14.2617C182.286 14.4896 182.325 14.6784 182.403 14.8281C182.481 14.9714 182.615 15.082 182.804 15.1602C182.953 15.2188 183.087 15.2643 183.204 15.2969C183.328 15.3229 183.487 15.3424 183.682 15.3555V16H179.083V15.3555C179.233 15.3424 179.376 15.3294 179.512 15.3164C179.656 15.3034 179.786 15.2773 179.903 15.2383C180.085 15.1797 180.219 15.0788 180.304 14.9355C180.395 14.7858 180.44 14.5938 180.44 14.3594V9.38867C180.44 8.71159 180.284 8.19076 179.971 7.82617C179.665 7.45508 179.281 7.26953 178.819 7.26953C178.5 7.26953 178.201 7.32161 177.921 7.42578C177.641 7.52344 177.384 7.66016 177.149 7.83594C176.96 7.97917 176.801 8.14193 176.671 8.32422C176.54 8.5 176.443 8.63346 176.378 8.72461V14.2422C176.378 14.4635 176.423 14.6491 176.514 14.7988C176.606 14.9486 176.742 15.0625 176.925 15.1406C177.061 15.2057 177.201 15.2546 177.345 15.2871C177.488 15.3197 177.647 15.3424 177.823 15.3555V16H173.145V15.3555C173.295 15.3424 173.448 15.3294 173.604 15.3164C173.767 15.3034 173.907 15.2773 174.024 15.2383C174.207 15.1797 174.34 15.0788 174.425 14.9355C174.516 14.7858 174.561 14.5938 174.561 14.3594V8.37305C174.561 8.16471 174.512 7.97917 174.415 7.81641C174.324 7.64714 174.193 7.50391 174.024 7.38672C173.901 7.30859 173.748 7.24674 173.565 7.20117C173.383 7.14909 173.194 7.11654 172.999 7.10352V6.46875L176.221 6.25391L176.358 6.39062V7.76758H176.427C176.589 7.60482 176.788 7.41276 177.022 7.19141C177.257 6.97005 177.475 6.79102 177.677 6.6543C177.904 6.49805 178.188 6.36784 178.526 6.26367C178.871 6.15951 179.242 6.10742 179.639 6.10742C180.264 6.10742 180.802 6.27669 181.251 6.61523C181.7 6.94727 182.022 7.35091 182.218 7.82617C182.452 7.59831 182.657 7.39974 182.833 7.23047C183.015 7.05469 183.253 6.86914 183.546 6.67383C183.793 6.50456 184.083 6.36784 184.415 6.26367C184.753 6.15951 185.128 6.10742 185.538 6.10742C186.352 6.10742 186.996 6.37435 187.471 6.9082C187.947 7.44206 188.184 8.26237 188.184 9.36914V14.2617C188.184 14.4896 188.223 14.6784 188.302 14.8281C188.38 14.9714 188.513 15.082 188.702 15.1602C188.852 15.2188 188.998 15.2643 189.141 15.2969C189.291 15.3229 189.457 15.3424 189.639 15.3555V16Z" fill="#F1CDB3"/>
</svg>
